<svg width="500" height="500" viewBox="0 0 500 500" fill="none" xmlns="http://www.w3.org/2000/svg">
<rect width="500" height="500" fill="white"/>
<path d="M75 240.577C75 235.199 76.2232 231.275 78.6697 228.599C81.1162 225.923 84.633 224.7 88.7615 224.343C91.3863 224.114 94.4954 223.961 97.7064 223.961C101.631 223.961 105.708 224.19 109.225 224.776L108.818 227.223C105.505 226.662 101.555 226.458 97.7064 226.458C94.5719 226.458 91.5138 226.611 88.9653 226.841C85.1682 227.172 82.3649 228.242 80.4791 230.307C78.5933 232.345 77.472 235.556 77.472 240.602C77.472 246.158 77.5739 267.131 77.5739 267.157H75.0765C75.102 267.131 75 246.132 75 240.577Z" fill="#292728"/>
<path d="M120.718 265.272C116.819 262.826 114.806 258.494 114.832 252.199C114.832 246.924 114.933 224.982 114.933 224.982H117.431C117.431 225.007 117.329 246.949 117.329 252.199C117.354 258.06 119.011 261.195 122.069 263.157C125.153 265.145 130.071 265.884 136.595 265.884C143.094 265.884 147.808 265.068 150.662 263.132C153.517 261.22 154.944 258.239 154.969 252.887V224.88H157.467V252.887C157.492 258.646 155.708 262.8 152.038 265.221C148.394 267.617 143.272 268.381 136.57 268.381C129.918 268.356 124.592 267.693 120.718 265.272Z" fill="#292728"/>
<path d="M171.61 264.175C167.813 261.117 165.927 256.275 165.927 249.598C165.927 243.992 166.029 201 166.029 201H168.527C168.527 201.025 168.501 211.754 168.476 223.197C168.45 234.639 168.425 246.795 168.425 249.598C168.45 255.842 170.107 259.741 173.165 262.239C176.248 264.736 181.039 265.883 187.487 265.883C193.985 265.883 199.515 265.118 203.211 262.748C206.88 260.378 209.097 256.556 209.123 249.471C209.123 242.437 208.919 237.366 207.798 234.002C206.651 230.664 204.918 228.931 201.044 227.809C198.471 227.07 194.954 226.765 190.316 226.765C185.219 226.765 181.141 227.096 178.338 227.402C175.535 227.733 174.057 228.039 174.057 228.039L173.547 225.592C173.623 225.567 179.944 224.242 190.341 224.242C195.081 224.242 198.776 224.547 201.733 225.388C204.663 226.204 206.906 227.606 208.409 229.67C211.417 233.849 211.595 240.016 211.62 249.445C211.646 257.04 209.021 262.035 204.536 264.838C200.102 267.641 194.164 268.355 187.487 268.355C180.759 268.355 175.407 267.233 171.61 264.175Z" fill="#292728"/>
<path d="M222.502 224.547H220.005V267.182H222.502V224.547Z" fill="#292728"/>
<path d="M288.252 266.877C284.71 265.679 281.626 263.258 280.046 259.665C278.976 257.295 278.517 254.593 278.517 251.484C278.517 246.642 278.619 226.586 278.619 226.586L285.27 226.612C285.27 226.637 285.168 246.693 285.168 251.484C285.168 253.931 285.551 255.689 286.111 256.938C286.698 258.187 287.386 258.977 288.481 259.69C290.622 261.117 294.776 261.856 300.586 261.831C304.919 261.831 308.232 261.423 310.423 260.608C312.615 259.741 313.609 258.824 314.399 257.142C314.909 255.995 315.24 254.364 315.24 252.147V226.535H321.891V252.147C321.891 255.001 321.483 257.549 320.515 259.792C319.547 262.035 317.941 263.92 315.953 265.22C311.952 267.82 306.881 268.457 300.612 268.482C295.872 268.457 291.794 268.1 288.252 266.877Z" fill="#292728"/>
<path d="M238.94 266.112C236.697 265.144 234.811 263.538 233.511 261.55C230.912 257.524 230.3 252.478 230.25 246.209C230.25 241.52 230.606 237.442 231.83 233.875C233.027 230.332 235.448 227.249 239.042 225.669C241.412 224.598 244.138 224.14 247.222 224.14C252.064 224.14 272.12 224.242 272.12 224.242L272.095 230.893C272.069 230.893 252.013 230.791 247.222 230.791C244.776 230.791 243.017 231.173 241.794 231.734C240.545 232.295 239.755 233.008 239.042 234.104C237.614 236.245 236.875 240.399 236.901 246.209C236.901 250.541 237.309 253.854 238.15 256.046C239.016 258.238 239.933 259.257 241.615 260.021C242.762 260.531 244.393 260.862 246.61 260.862H272.222V267.514H246.61C243.731 267.488 241.182 267.081 238.94 266.112Z" fill="#292728"/>
<path d="M387.666 266.111C385.423 265.143 383.537 263.538 382.238 261.55C379.638 257.523 379.027 252.477 378.976 246.208C378.976 241.519 379.307 237.442 380.556 233.874C381.753 230.332 384.174 227.248 387.768 225.668C390.138 224.598 392.839 224.139 395.948 224.139C398.726 224.139 401.453 224.062 404.536 224.062C406.651 224.062 408.92 224.113 411.493 224.241C414.424 224.419 416.896 225.056 418.935 226.254C420.974 227.426 422.452 229.159 423.318 230.994C425.076 234.689 424.975 238.563 425 241.901C425 242.08 425 242.233 425 242.437C425 244.322 424.72 246.03 424.083 247.584C423.446 249.113 422.426 250.439 421.177 251.382C418.629 253.267 415.698 253.675 412.742 253.726C411.188 253.752 409.633 253.752 408.104 253.752C400.382 253.752 393.298 253.522 393.272 253.522L393.502 246.871C393.502 246.871 400.535 247.1 408.104 247.1C409.608 247.1 411.162 247.1 412.64 247.075C414.373 247.049 415.724 246.82 416.514 246.438C417.304 246.055 417.61 245.775 417.941 245.011C418.17 244.475 418.349 243.66 418.349 242.437C418.349 242.284 418.349 242.105 418.349 241.901C418.349 239.429 418.298 237.11 417.864 235.403C417.406 233.67 416.82 232.753 415.545 231.988C414.653 231.478 413.277 231.02 411.086 230.892C408.69 230.765 406.549 230.714 404.511 230.714C401.555 230.714 398.853 230.79 395.923 230.816C393.476 230.816 391.718 231.198 390.494 231.759C389.246 232.319 388.456 233.033 387.742 234.129C386.315 236.269 385.576 240.423 385.601 246.234C385.601 250.566 386.009 253.879 386.825 256.071C387.691 258.262 388.609 259.282 390.291 260.046C391.437 260.556 393.068 260.887 395.285 260.887H420.897V267.539H395.285C392.457 267.488 389.908 267.08 387.666 266.111Z" fill="#292728"/>
<path d="M335.372 264.149C331.243 260.862 329.332 255.587 329.357 249.139C329.357 243.991 329.459 201.025 329.459 201.025L336.111 201.05C336.111 201.076 336.085 211.805 336.06 223.171C336.034 234.562 336.009 246.591 336.009 249.139C336.009 251.789 336.366 253.854 336.977 255.408C337.589 256.988 338.404 258.059 339.526 258.976C341.717 260.785 345.565 261.83 351.248 261.83C355.581 261.83 359.327 261.448 362.054 260.454C364.78 259.435 366.437 258.109 367.609 255.765C368.374 254.185 368.858 251.993 368.858 249.012C368.858 244.221 368.756 240.474 368.297 237.85C367.839 235.174 367.125 233.823 366.182 232.931C365.519 232.32 364.602 231.784 363.073 231.351C361.034 230.765 358.002 230.459 353.848 230.434C353.72 230.434 353.618 230.434 353.542 230.434C347.451 230.434 343.705 231.249 342.991 231.402C342.89 231.428 342.89 231.428 342.89 231.428H342.405L342.278 225.006C342.507 224.955 345.871 223.782 353.516 223.782C353.669 223.782 353.771 223.782 353.873 223.782C358.868 223.808 362.716 224.165 365.978 225.286C369.215 226.356 371.84 228.573 373.241 231.479C374.21 233.415 374.694 235.531 375.025 237.875C375.433 241.035 375.484 244.628 375.484 248.986C375.484 252.707 374.872 255.892 373.598 258.594C372.324 261.295 370.336 263.436 368.017 264.888C363.302 267.819 357.517 268.431 351.248 268.456C344.903 268.431 339.475 267.386 335.372 264.149Z" fill="#292728"/>
<path d="M287.844 307.346C287.844 311.194 285.372 313.692 281.524 313.692C277.676 313.692 275.204 311.194 275.204 307.346V292.234H272.961V307.346C272.961 312.341 276.402 315.705 281.524 315.705C286.646 315.705 290.087 312.341 290.087 307.346V292.234H287.844V307.346V307.346ZM314.832 304.16H309.021V294.222H314.832C317.915 294.222 319.75 296.082 319.75 299.191C319.75 302.3 317.915 304.16 314.832 304.16ZM314.934 292.208H306.779V315.17H309.021V306.148H314.934C319.215 306.148 322.069 303.345 322.069 299.166C322.069 295.012 319.19 292.208 314.934 292.208ZM254.995 305.46C254.995 310.531 252.396 313.692 248.191 313.692C244.011 313.692 241.386 310.531 241.386 305.46V301.943C241.386 296.872 243.986 293.712 248.191 293.712C252.396 293.712 254.995 296.872 254.995 301.943V305.46ZM248.191 291.724C242.533 291.724 239.169 295.547 239.169 301.943V305.46C239.169 311.78 242.635 315.679 248.191 315.679C253.772 315.679 257.238 311.755 257.238 305.46V301.943C257.238 295.547 253.874 291.724 248.191 291.724ZM184.2 305.486H190.443V308.136C190.443 311.551 188.073 313.666 184.302 313.666C180.02 313.666 177.472 310.531 177.472 305.256V301.994C177.472 296.795 179.995 293.712 184.225 293.712C187.538 293.712 189.857 295.649 190.342 298.809H192.584C192.151 294.553 188.863 291.724 184.302 291.724C178.721 291.724 175.255 295.674 175.255 302.02V305.282C175.255 311.908 178.568 315.705 184.378 315.705C189.424 315.705 192.686 312.749 192.686 308.161V303.523H184.225V305.486H184.2ZM216.284 303.753H210.907V294.222H216.412C219.699 294.222 221.611 296.005 221.611 299.089C221.611 302.096 219.725 303.753 216.284 303.753ZM219.725 305.205C222.375 304.262 223.955 301.918 223.955 298.911C223.955 294.859 221.126 292.234 216.769 292.234H208.665V315.195H210.907V305.766H217.227L217.304 305.919L221.611 315.221H224.21L219.47 305.333L219.725 305.205Z" fill="#292728"/>
</svg>
