<svg width="82" height="81" viewBox="0 0 82 81" fill="none" xmlns="http://www.w3.org/2000/svg">
<path d="M49.62 49.1499C52.63 51.4299 58.14 52.7899 64.35 52.7899C70.56 52.7899 76.07 51.4299 79.08 49.1499L79.48 48.8499V54.4199C79.48 57.0899 73.27 60.0699 64.35 60.0699C55.45 60.0699 49.23 57.0999 49.22 54.4299V48.8499L49.62 49.1499ZM49.21 39.3199L49.61 39.6199L49.54 39.8199H49.56L49.68 39.6699C49.74 39.7099 49.8 39.7599 49.86 39.7999L50.44 40.1799L50.39 40.4499L50.52 40.2399C50.61 40.2899 50.7 40.3499 50.79 40.3999L52.71 41.3299L53.89 41.7699C54.02 41.8099 54.14 41.8499 54.27 41.8899V42.1499L54.34 41.9099C54.45 41.9399 54.55 41.9799 54.66 42.0099L55.2 42.1599C55.36 42.1999 55.5 42.2399 55.64 42.2699L55.65 42.5299L55.71 42.2899C55.83 42.3199 55.95 42.3499 56.07 42.3799L57.12 42.6099C57.27 42.6399 57.42 42.6699 57.57 42.6999L60.29 43.0799C60.47 43.0999 60.64 43.1199 60.81 43.1299L60.88 43.3899L60.9 43.1399L63.72 43.2799H64.33L66.66 43.2199L66.79 43.4599L66.78 43.2099L67.85 43.1299C68.03 43.1099 68.2 43.0999 68.37 43.0799L68.46 43.3199L68.43 43.0699L69.51 42.9399C69.68 42.9199 69.84 42.8899 70 42.8699L70.12 43.0999L70.08 42.8499C70.21 42.8299 70.34 42.8099 70.47 42.7899L70.62 42.7599C70.74 42.7399 70.85 42.7199 70.96 42.6999L71.04 42.6899C71.24 42.6499 71.4 42.6199 71.55 42.5899C71.74 42.5499 71.87 42.5199 72 42.4999L72.99 42.2699C73.16 42.2299 73.3 42.1899 73.44 42.1499L74.32 41.8899L74.47 42.0999L74.39 41.8599C74.52 41.8199 74.6501 41.7799 74.7801 41.7299L75.67 41.4099C75.78 41.3699 75.9001 41.3199 76.0201 41.2699L76.74 40.9499L76.92 41.1399L76.82 40.9099C76.93 40.8599 77.0401 40.8099 77.1501 40.7499L77.55 40.5399C77.63 40.4999 77.71 40.4499 77.79 40.3999L77.86 40.3599C78.06 40.2499 78.26 40.1299 78.44 39.9999C78.57 39.9099 78.65 39.8599 78.73 39.8099C78.86 39.7199 78.9501 39.6599 79.0301 39.5899L79.43 39.2799V45.2099C79.43 47.8799 73.22 50.8599 64.3 50.8599C55.39 50.8599 49.18 47.8799 49.17 45.2199V39.3199H49.21ZM64.35 30.0599C73.27 30.0599 79.48 33.0399 79.48 35.7099C79.48 38.3799 73.27 41.3599 64.35 41.3599C56.49 41.3599 50.85 39.0099 49.54 36.7999C49.32 36.4399 49.22 36.0699 49.22 35.7099C49.22 33.0399 55.44 30.0599 64.35 30.0599ZM79.48 62.9899C79.48 65.6599 73.27 68.6399 64.35 68.6399C55.46 68.6399 49.24 65.6699 49.22 63.0099V58.0299L49.62 58.3299C52.63 60.6099 58.14 61.9699 64.35 61.9699C70.56 61.9699 76.07 60.6099 79.08 58.3299L79.48 58.0299V62.9899ZM79.48 73.3299C79.4 76.0299 73.31 78.9299 64.35 78.9299C55.4 78.9299 49.3 76.0399 49.22 73.3299V66.5999L49.62 66.8999C52.63 69.1799 58.14 70.5399 64.35 70.5399C70.56 70.5399 76.07 69.1799 79.08 66.8999L79.48 66.5999V73.3299ZM47.28 73.3499C47.28 73.3799 47.28 73.4199 47.28 73.4499C47.5 77.6499 54.79 80.7999 64.25 80.8199H64.34C73.85 80.8199 81.18 77.6599 81.41 73.4699C81.41 73.4299 81.42 73.3899 81.42 73.3599V35.7199C81.42 31.4199 74.08 28.1699 64.35 28.1699C54.62 28.1699 47.28 31.4099 47.28 35.7199V54.3999L47.03 54.4799H47.28V73.3499Z" fill="#242124"/>
<path d="M20.2601 11.0898L20.0001 11.0798C18.0001 11.0298 16.01 10.8398 14.08 10.5198L13.7901 10.4698L13.8801 10.1898C14.2401 9.11982 14.6501 8.10983 15.1001 7.19983C16.4301 4.54983 18.1401 2.75983 19.9201 2.16983L20.2501 2.05981V11.0898H20.2601ZM20.2601 19.7798H12.3201L12.33 19.5198C12.41 17.0698 12.7101 14.7198 13.2201 12.5398L13.2701 12.3098L13.5001 12.3498C15.6301 12.7198 17.8201 12.9298 20.0101 12.9798L20.2501 12.9898V19.7798H20.2601ZM20.2601 28.4598L20.0201 28.4698C17.83 28.5298 15.6401 28.7398 13.5101 29.0998L13.2801 29.1398L13.2301 28.9098C12.7101 26.7298 12.4101 24.3798 12.3401 21.9298L12.33 21.6698H20.2701V28.4598H20.2601ZM20.2601 39.3898L19.9301 39.2798C18.1501 38.6898 16.44 36.9098 15.11 34.2498C14.65 33.3398 14.2401 32.3398 13.8901 31.2598L13.8 30.9798L14.0901 30.9298C16.0201 30.6098 18.0101 30.4198 20.0101 30.3698L20.2701 30.3598V39.3898H20.2601ZM14.9801 38.4498C11.9101 37.3998 9.13005 35.5698 6.96005 33.1598L6.71005 32.8898L7.06006 32.7598C8.51006 32.2298 10.0501 31.7798 11.6601 31.4098L11.8801 31.3598L11.9501 31.5798C12.7801 34.1698 13.9201 36.4098 15.2601 38.0598L15.8101 38.7298L14.9801 38.4498ZM5.67007 31.2498L5.48007 31.3198L5.37006 31.1498C3.50006 28.4098 2.40006 25.2298 2.19006 21.9398L2.17007 21.6698H10.3701L10.3801 21.9098C10.4601 24.4798 10.7701 26.9598 11.3101 29.2698L11.3701 29.5098L11.1301 29.5698C9.22007 30.0198 7.39007 30.5798 5.67007 31.2498ZM2.20007 19.5098C2.41007 16.2198 3.51007 13.0398 5.38007 10.2998L5.49005 10.1398L5.67007 10.2098C7.38007 10.8798 9.22006 11.4398 11.1201 11.8798L11.36 11.9398L11.3 12.1798C10.76 14.4898 10.4501 16.9698 10.3701 19.5398L10.36 19.7798H2.16006L2.20007 19.5098ZM6.96005 8.28983C9.13005 5.87983 11.9001 4.04982 14.9801 2.99982L15.8 2.71982L15.2501 3.38983C13.9101 5.04983 12.7701 7.28981 11.9401 9.86981L11.8701 10.0898L11.6501 10.0398C10.0501 9.66983 8.50005 9.21982 7.05005 8.68982L6.70007 8.55981L6.96005 8.28983ZM22.2001 30.3598L22.4601 30.3698C24.4601 30.4198 26.4501 30.6098 28.3801 30.9298L28.6701 30.9798L28.58 31.2598C28.22 32.3298 27.81 33.3398 27.36 34.2498C26.03 36.8998 24.3101 38.6898 22.5401 39.2798L22.2101 39.3898V30.3598H22.2001ZM22.2001 21.6798H30.1401L30.1301 21.9398C30.0601 24.3898 29.7501 26.7398 29.2401 28.9198L29.1901 29.1498L28.9601 29.1098C26.8301 28.7498 24.6401 28.5298 22.4501 28.4798L22.2101 28.4698V21.6798H22.2001ZM22.2001 12.9898L22.4401 12.9798C24.6301 12.9198 26.8201 12.7098 28.9501 12.3498L29.1801 12.3098L29.2401 12.5398C29.7501 14.7198 30.0601 17.0698 30.1301 19.5198L30.1401 19.7798H22.2001V12.9898ZM22.2001 2.06982L22.5301 2.17981C24.3101 2.76981 26.0201 4.54981 27.3501 7.20981C27.8101 8.11981 28.2201 9.12983 28.5701 10.1998L28.6601 10.4798L28.3701 10.5298C26.4401 10.8498 24.4501 11.0398 22.4501 11.0898L22.1901 11.0998V2.06982H22.2001ZM27.4801 2.99982C30.5501 4.04982 33.3301 5.87983 35.5001 8.28983L35.7501 8.55981L35.4001 8.68982C33.9501 9.21982 32.41 9.66983 30.8 10.0398L30.58 10.0898L30.5101 9.86981C29.6801 7.27981 28.5401 5.03983 27.2001 3.38983L26.6501 2.71982L27.4801 2.99982ZM36.9701 10.1398L37.08 10.2998C38.95 13.0398 40.0501 16.2198 40.2601 19.5098L40.2801 19.7798H32.08L32.0701 19.5398C32.0001 16.9698 31.6801 14.4898 31.1401 12.1798L31.08 11.9398L31.3201 11.8798C33.2201 11.4398 35.0601 10.8798 36.7701 10.2198L36.9701 10.1398ZM40.2601 21.9398C40.0501 25.2298 38.94 28.4098 37.08 31.1498L36.9701 31.3198L36.7801 31.2498C35.0701 30.5798 33.23 30.0198 31.33 29.5898L31.0901 29.5298L31.1501 29.2898C31.6901 26.9798 32 24.4998 32.08 21.9298L32.0901 21.6898H40.2901L40.2601 21.9398ZM35.5001 33.1598C33.3301 35.5698 30.5501 37.3998 27.4801 38.4498L26.6601 38.7298L27.2101 38.0598C28.5501 36.4098 29.6901 34.1598 30.5201 31.5798L30.5901 31.3598L30.8101 31.4098C32.4101 31.7798 33.9601 32.2298 35.4001 32.7598L35.7501 32.8898L35.5001 33.1598ZM20.6301 41.3798C21.0301 41.3898 21.43 41.3898 21.83 41.3798L21.9201 41.6298L21.9101 41.3798C22.0901 41.3698 22.2701 41.3698 22.4501 41.3598C26.7801 41.0998 30.8401 39.5898 34.2201 36.9598L34.6001 36.6598C35.9101 35.5998 37.0801 34.3898 38.0901 33.0598C38.1101 33.0298 38.1401 32.9898 38.1601 32.9598C40.8301 29.3798 42.2401 25.1698 42.2401 20.7598C42.2301 16.2898 40.8301 12.0798 38.1701 8.51981L38.1501 8.49982C38.1301 8.46982 38.1101 8.43982 38.0901 8.40982C37.2801 7.33982 36.3601 6.34983 35.3501 5.44983C35.2401 5.34983 35.1401 5.25981 35.0401 5.17981L34.6701 4.86981C30.9001 1.76981 26.1201 0.0698242 21.2201 0.0698242C16.3301 0.0698242 11.5601 1.76982 7.79007 4.84982L7.43005 5.14981C6.28005 6.12981 5.24007 7.21982 4.35007 8.40982C4.33007 8.43982 4.30006 8.47983 4.28006 8.50983C1.61006 12.0898 0.200073 16.3098 0.200073 20.7398C0.200073 25.1698 1.61005 29.3798 4.27005 32.9498C4.30005 33.0098 4.33007 33.0398 4.35007 33.0698C5.35007 34.3898 6.52005 35.5998 7.83005 36.6598L8.21005 36.9598C11.5901 39.5898 15.6501 41.1098 19.9401 41.3598C20.1701 41.3698 20.3401 41.3798 20.5101 41.3798H20.6301Z" fill="#242124"/>
<path d="M68.92 20.7896L69 20.8096L69.04 21.0696L69.07 20.8196C69.13 20.8296 69.2 20.8296 69.26 20.8196L69.35 21.0596L69.34 20.8096L69.68 20.6796C69.73 20.6496 69.76 20.6296 69.78 20.6096C69.82 20.5796 69.84 20.5596 69.86 20.5396L73.35 17.1096C73.53 16.9296 73.63 16.6896 73.63 16.4396C73.63 16.1896 73.53 15.9496 73.35 15.7696C72.97 15.3996 72.35 15.3996 71.97 15.7696L70.14 17.5696V9.58963C70.14 9.06963 69.71 8.63965 69.17 8.63965H46.5C45.96 8.63965 45.53 9.06963 45.53 9.58963C45.53 10.1096 45.96 10.5396 46.5 10.5396H68.19V17.5796L66.36 15.7796C65.98 15.4096 65.36 15.4096 64.98 15.7796C64.8 15.9596 64.7 16.1996 64.7 16.4496C64.7 16.6996 64.8 16.9396 64.98 17.1196L68.47 20.5496L68.36 20.7796L68.53 20.5996L68.58 20.6396L68.48 20.8796L68.65 20.6896L68.59 20.9396L68.72 20.7196L68.66 20.9696L68.79 20.7596L68.75 21.0096L68.86 20.7796L68.83 21.0296L68.92 20.7896Z" fill="#242124"/>
<path d="M18.22 51.5797C18.2 51.5897 18.18 51.5997 18.15 51.6097C18.06 51.6597 17.99 51.7097 17.92 51.7697L14.43 55.1998C14.25 55.3798 14.15 55.6198 14.15 55.8698C14.15 56.1198 14.25 56.3598 14.43 56.5398C14.81 56.9098 15.42 56.9098 15.8 56.5398L17.63 54.7397V62.7298C17.63 63.2498 18.06 63.6797 18.6 63.6797H41.26C41.8 63.6797 42.23 63.2498 42.23 62.7298C42.23 62.2098 41.8 61.7798 41.26 61.7798H19.57V54.7498L21.4 56.5497C21.77 56.9097 22.41 56.9097 22.78 56.5497C22.96 56.3697 23.06 56.1298 23.06 55.8798C23.06 55.6298 22.96 55.3897 22.78 55.2097L19.3 51.7898C19.27 51.7598 19.25 51.7398 19.22 51.7198L19.21 51.7097C19.19 51.6897 19.17 51.6798 19.15 51.6598L18.98 51.5698C18.93 51.5498 18.91 51.5498 18.89 51.5398L18.79 51.5197C18.75 51.5097 18.73 51.5098 18.7 51.5098L18.65 51.2598L18.63 51.5098H18.57H18.5L18.36 51.2798L18.41 51.5298L18.28 51.2997L18.34 51.5398L18.22 51.5797Z" fill="#242124"/>
</svg>
