<svg width="82" height="80" viewBox="0 0 82 80" fill="none" xmlns="http://www.w3.org/2000/svg">
<path d="M79.0301 14.3702H2.62006V6.56018C2.62006 5.47018 3.04006 4.45018 3.81006 3.68018C4.58006 2.91018 5.60006 2.49019 6.69006 2.49019H74.9601C76.0501 2.49019 77.0701 2.91018 77.8401 3.68018C78.6101 4.45018 79.0301 5.47018 79.0301 6.56018V14.3702ZM74.9501 0.430176H6.68005C5.05005 0.430176 3.51007 1.07018 2.35007 2.23018C1.19007 3.39018 0.560049 4.92018 0.550049 6.56018V58.8002C0.550049 60.4302 1.19007 61.9702 2.35007 63.1302C3.51007 64.2902 5.04005 64.9202 6.68005 64.9302H7.10007C7.67007 64.9302 8.13007 64.4702 8.13007 63.9002C8.13007 63.3302 7.67007 62.8702 7.10007 62.8702H6.68005C5.59005 62.8702 4.57005 62.4502 3.80005 61.6802C3.03005 60.9102 2.61005 59.8902 2.61005 58.8002V16.3902H79.0201V58.8002C79.0201 59.8902 78.6001 60.9102 77.8301 61.6802C77.0601 62.4502 76.0401 62.8702 74.9501 62.8702H44.1201C43.5501 62.8702 43.0901 63.3302 43.0901 63.9002C43.0901 64.4602 43.5501 64.9302 44.1201 64.9302H74.9501C76.5901 64.9302 78.1301 64.2902 79.2801 63.1402C80.4201 62.0002 81.0701 60.4202 81.0701 58.8102V6.57019C81.0701 4.93019 80.4301 3.39019 79.2801 2.24019C78.1401 1.09019 76.5601 0.430176 74.9501 0.430176Z" fill="#242124"/>
<path d="M11.98 7.44043H9.18002C8.61002 7.44043 8.15002 7.90043 8.15002 8.47043C8.15002 9.04043 8.61002 9.50043 9.18002 9.50043H11.98C12.55 9.50043 13.01 9.04043 13.01 8.47043C13.01 7.90043 12.55 7.44043 11.98 7.44043Z" fill="#242124"/>
<path d="M21.5501 7.44043H18.7501C18.1801 7.44043 17.7201 7.90043 17.7201 8.47043C17.7201 9.04043 18.1801 9.50043 18.7501 9.50043H21.5501C22.1201 9.50043 22.5801 9.04043 22.5801 8.47043C22.5801 7.90043 22.1201 7.44043 21.5501 7.44043Z" fill="#242124"/>
<path d="M31.12 7.44043H28.32C27.75 7.44043 27.29 7.90043 27.29 8.47043C27.29 9.04043 27.75 9.50043 28.32 9.50043H31.12C31.69 9.50043 32.15 9.04043 32.15 8.47043C32.15 7.90043 31.69 7.44043 31.12 7.44043Z" fill="#242124"/>
<path d="M33.9001 71.9102C33.3401 73.6202 32.2201 75.1102 30.7301 76.1302C29.3601 77.0502 27.7601 77.5302 26.1301 77.5302C25.7401 77.5302 25.3401 77.5002 24.9501 77.4402C22.9301 77.1502 21.0901 76.1302 19.7801 74.5602C19.7101 74.4702 19.6501 74.3802 19.5901 74.2802L19.3801 73.9402L21.0501 72.2702L22.1001 73.3202C22.3001 73.5302 22.5701 73.6502 22.8601 73.6302C23.0701 73.6302 23.2901 73.5702 23.4601 73.4502L33.6601 66.1602L33.8301 66.6302C34.4301 68.3302 34.4501 70.2102 33.9001 71.9102ZM15.6001 74.8502L9.84012 69.0202L13.8201 65.0502L19.5901 70.8202L15.6001 74.8502ZM26.2501 43.4202L41.1401 58.4102L22.9601 71.2902L13.3401 61.6602L26.2501 43.4202ZM25.9201 39.2302V39.2102L26.0301 39.0302L27.6301 37.4302C27.9701 37.0902 28.5801 37.0902 28.9201 37.4302L47.1301 55.6402C47.3001 55.8102 47.4001 56.0402 47.4001 56.2802C47.4001 56.5202 47.3001 56.7602 47.1301 56.9302L45.5401 58.6002C45.3601 58.7802 45.1301 58.8802 44.8901 58.8802C44.6501 58.8802 44.4101 58.7802 44.2401 58.6102L26.0301 40.4002C25.8601 40.2402 25.7601 40.0002 25.7601 39.7502C25.7601 39.5602 25.8201 39.3802 25.9201 39.2302ZM35.3501 65.0102L42.6201 59.8202L42.8501 60.0402C43.9701 61.1402 45.8901 61.1402 47.0001 60.0402L48.6001 58.4402C49.1501 57.8902 49.4701 57.1302 49.4701 56.3402C49.4701 55.5602 49.1501 54.8002 48.6001 54.2402L30.3801 36.0202C29.2601 34.9002 27.3101 34.9002 26.1901 36.0202L24.5901 37.6202C24.0401 38.1702 23.7401 38.9102 23.7401 39.6902C23.7401 40.4702 24.0401 41.2102 24.5901 41.7702L24.8101 41.9902L11.2001 61.1302C10.9001 61.5602 10.9401 62.1502 11.3101 62.5302L12.3501 63.5702L7.70014 68.2202C7.30014 68.6502 7.30012 69.3302 7.71012 69.7702L14.8301 76.8202C15.0401 77.0302 15.3201 77.1502 15.6101 77.1602C15.8901 77.1502 16.1701 77.0402 16.3801 76.8302L18.1901 75.0102V75.8502C20.1501 78.1802 23.0101 79.5102 26.0501 79.5102C26.0801 79.5102 26.1001 79.5102 26.1301 79.5102C28.2201 79.5302 30.2001 78.9202 31.9001 77.7502C33.8501 76.4102 35.2801 74.4202 35.9301 72.1402C36.5801 69.8602 36.4101 67.4202 35.4601 65.2502L35.3501 65.0102Z" fill="#242124"/>
<path d="M67.16 34.6504C67.69 34.0104 67.99 33.2404 68.04 32.4104C67.96 31.3804 67.47 30.3904 66.65 29.6804C65.83 28.9704 64.79 28.6204 63.71 28.6804C62.71 28.6804 61.91 27.8804 61.91 26.9004C61.91 25.9204 62.71 25.1204 63.69 25.1204L63.79 25.0904C64.81 25.0204 65.74 25.8004 65.83 26.8304C65.83 27.1604 65.95 27.4404 66.17 27.6304C66.39 27.8304 66.67 27.9204 66.97 27.8904C67.34 27.9104 67.63 27.8204 67.84 27.6304C68.05 27.4304 68.18 27.1604 68.18 26.8704C68.14 26.0604 67.85 25.2904 67.33 24.6404C66.82 24.0104 66.1 23.5504 65.31 23.3504L65.03 23.2804V22.6504C65.03 22.3604 64.91 22.0804 64.69 21.8804C64.47 21.6804 64.18 21.5904 63.89 21.6204C63.53 21.5904 63.23 21.6904 63.02 21.8804C62.81 22.0704 62.68 22.3504 62.69 22.6404V23.2904L62.4 23.3604C61.6 23.5404 60.86 23.9904 60.33 24.6204C59.8 25.2504 59.48 26.0504 59.43 26.8704C59.51 27.9004 60 28.8804 60.82 29.6004C61.64 30.3104 62.68 30.6704 63.76 30.6004C64.52 30.7304 65.07 31.2304 65.25 31.8904C65.43 32.5504 65.2 33.2604 64.68 33.7004C64.16 34.1404 63.42 34.2404 62.8 33.9604C62.18 33.6804 61.77 33.0604 61.76 32.3704C61.76 32.0704 61.64 31.7904 61.42 31.5904C61.2 31.3904 60.91 31.3004 60.62 31.3304C60.58 31.3304 60.53 31.3304 60.49 31.3304C60.18 31.3304 59.94 31.4204 59.75 31.6004C59.54 31.8004 59.41 32.0704 59.41 32.3604C59.45 33.1704 59.74 33.9404 60.25 34.5804C60.76 35.2104 61.47 35.6704 62.25 35.8804L62.53 35.9504V36.4504C62.53 36.7404 62.65 37.0204 62.87 37.2204C63.09 37.4204 63.37 37.5104 63.66 37.4804C64.01 37.5104 64.3 37.4204 64.51 37.2404C64.72 37.0604 64.85 36.7904 64.86 36.5104V35.9704L65.15 35.9004C65.93 35.7304 66.63 35.2904 67.16 34.6504Z" fill="#242124"/>
<path d="M70.23 36.1004C68.51 37.8204 66.22 38.7704 63.79 38.8004C61.31 38.7904 58.99 37.8204 57.25 36.0704C55.49 34.3904 54.48 32.0104 54.46 29.5704C54.49 27.1104 55.47 24.8104 57.22 23.0904C58.97 21.3704 61.25 20.4404 63.73 20.4304C66.2 20.4404 68.53 21.4104 70.27 23.1604C71.99 24.8704 72.96 27.2404 72.94 29.6604C72.91 32.1004 71.95 34.3804 70.23 36.1004ZM71.83 21.7204C69.7 19.5804 66.86 18.4004 63.84 18.4004C63.79 18.4004 63.74 18.4004 63.7 18.4004C60.73 18.4004 57.94 19.5404 55.81 21.6104C53.65 23.7204 52.44 26.5404 52.41 29.5604C52.39 32.5204 53.58 35.4204 55.69 37.5104C57.82 39.6504 60.66 40.8304 63.68 40.8304C66.7 40.8604 69.55 39.7304 71.71 37.6204C73.84 35.5404 75.08 32.6504 75.11 29.6704C75.13 26.7104 73.93 23.8104 71.83 21.7204Z" fill="#242124"/>
<path d="M59.7401 48.4201C60.5501 47.6201 61.6601 47.1601 62.8101 47.1901C63.9801 47.1901 65.0601 47.6301 65.8701 48.4401C66.6701 49.2201 67.1301 50.3001 67.1301 51.4201C67.1201 52.5301 66.6601 53.6101 65.8701 54.3901C65.0601 55.1801 63.9901 55.6001 62.8701 55.6001H62.7401C61.6301 55.6001 60.5301 55.1501 59.7401 54.3501C58.9501 53.5701 58.5001 52.4901 58.5001 51.3801C58.4901 50.2901 58.9501 49.2001 59.7401 48.4201ZM58.4401 55.8201C59.6301 57.0101 61.2001 57.6701 62.8901 57.6701C64.5601 57.6601 66.1201 57.0101 67.3001 55.8301C68.4801 54.6701 69.1601 53.0501 69.1601 51.3901C69.1601 49.7301 68.4801 48.1201 67.3101 46.9601C66.2101 45.8601 64.7701 45.2101 63.2301 45.1201L62.8701 45.1401H62.8601C61.1901 45.1401 59.6301 45.7801 58.4401 46.9501C57.2601 48.1101 56.5801 49.7301 56.5801 51.3801C56.5901 53.0501 57.2601 54.6601 58.4401 55.8201Z" fill="#242124"/>
<path d="M44.59 39.97C44.95 39.62 45.44 39.44 45.94 39.47L46.3 39.49V39.55C46.65 39.62 46.97 39.8 47.23 40.06C47.57 40.4 47.77 40.87 47.76 41.35C47.76 41.83 47.56 42.3 47.2 42.64C46.87 42.95 46.43 43.1199 45.98 43.1199C45.94 43.1199 45.91 43.1199 45.87 43.1199C45.4 43.1199 44.93 42.93 44.58 42.58C44.24 42.25 44.04 41.7699 44.05 41.2899C44.04 40.8099 44.24 40.32 44.59 39.97ZM43.14 44.05C43.86 44.78 44.86 45.2 45.88 45.2H45.89H45.9C46.93 45.2 47.89 44.8 48.63 44.09C49.37 43.37 49.78 42.3999 49.8 41.3699C49.81 40.3399 49.4 39.3399 48.66 38.6199C47.92 37.8799 46.94 37.47 45.9 37.46H45.88C44.85 37.46 43.87 37.86 43.14 38.59C42.49 39.23 42.1 40.05 42 40.95L42.01 41.3C42 42.32 42.41 43.33 43.14 44.05Z" fill="#242124"/>
<path d="M42.4101 24.5804C42.3001 25.4304 41.8501 26.2104 41.1701 26.7304C40.5901 27.1704 39.9001 27.4104 39.1901 27.4104C39.0501 27.4104 38.9001 27.4004 38.7501 27.3804C37.7101 27.2004 36.8301 26.5304 36.3901 25.5904C35.9501 24.6504 36.0001 23.5404 36.5301 22.6404C37.0601 21.7404 37.9901 21.1504 39.0301 21.0804C40.0601 21.0004 41.0801 21.4404 41.7401 22.2504C42.2701 22.9104 42.5001 23.7404 42.4101 24.5804ZM39.8201 18.9204C39.6001 18.8904 39.3901 18.8804 39.1701 18.8804C37.5301 18.8804 35.9601 19.6504 34.9601 20.9704C33.8301 22.4704 33.5801 24.4704 34.3101 26.2004C35.0401 27.9304 36.6501 29.1504 38.5201 29.3804C38.7201 29.3904 38.9501 29.3904 39.1801 29.3804H39.1901C40.3801 29.3804 41.5301 28.9904 42.4501 28.2804C43.5401 27.4304 44.2601 26.1604 44.4201 24.7904C44.5901 23.4204 44.1901 22.0104 43.3401 20.9204C42.4601 19.8204 41.2101 19.1104 39.8201 18.9204Z" fill="#242124"/>
</svg>
