<svg width="81" height="84" viewBox="0 0 81 84" fill="none" xmlns="http://www.w3.org/2000/svg">
<path d="M31.7801 67.8H31.7101C31.5601 68.18 31.1901 68.4501 30.7601 68.4501H24.6901C23.6201 68.4401 22.6001 67.99 21.8701 67.21C21.7401 67.06 21.7401 67.0601 21.7501 58.7501V57.6601L21.86 57.55C22.21 57.2 22.6001 56.9001 23.0401 56.6601C25.8201 54.8601 26.7701 52.36 27.4001 48.93L27.5401 48.1701L28.05 48.7501C29.48 50.3801 28.5401 53.4001 27.7501 54.9401C27.6001 55.2301 27.6201 55.5801 27.7801 55.8501C27.9501 56.1201 28.2501 56.3 28.5701 56.3H30.7501C31.3101 56.3 31.7701 56.7601 31.7701 57.3201V67.8H31.7801ZM19.9101 67.5001H18.0101V57.58H19.9101V67.5001ZM30.7601 54.4401H30.0101L30.1601 53.9501C30.8901 51.6301 30.7501 49.45 29.7701 47.96C29.4401 47.43 28.9801 47.0001 28.4401 46.7201C27.9001 46.4401 27.2901 46.32 26.6801 46.36C26.2501 46.39 25.9001 46.72 25.8401 47.15C25.2001 51.43 24.3901 53.3401 22.5901 54.7201C22.1001 55.1101 21.5701 55.4401 21.0001 55.7001L20.8401 55.7301H17.1001C16.8501 55.7301 16.6201 55.8301 16.4501 56.0001C16.2801 56.1801 16.1801 56.4101 16.1801 56.6601V68.4401C16.1801 68.6901 16.2801 68.9201 16.4501 69.1001C16.6201 69.2801 16.8501 69.37 17.1001 69.37H20.8401C20.9601 69.37 21.0801 69.3501 21.1901 69.3101L21.3701 69.24L21.5301 69.3501C22.4701 69.9801 23.5601 70.3201 24.6901 70.3201H30.7601C31.5201 70.3201 32.2401 70.0201 32.7901 69.4701C33.3301 68.9301 33.6301 68.2 33.6301 67.43V57.3201C33.6301 56.5501 33.3301 55.8301 32.7901 55.2801C32.2401 54.7401 31.5301 54.4401 30.7601 54.4401Z" fill="#242124"/>
<path d="M58.6901 39.7099C57.8301 39.7099 57.0701 39.1999 56.7401 38.3999C56.4101 37.6099 56.5901 36.6999 57.2001 36.0899C57.8001 35.4799 58.7101 35.2999 59.5001 35.6299C60.2901 35.9599 60.8001 36.7299 60.8001 37.5899C60.8001 38.7599 59.8501 39.7099 58.6901 39.7099ZM58.6901 33.6099C57.6301 33.6099 56.6401 34.0199 55.8901 34.7799C55.1401 35.5299 54.7301 36.5299 54.7301 37.5899C54.7301 38.6399 55.1501 39.6599 55.8901 40.3999C56.6401 41.1499 57.6301 41.5699 58.6901 41.5699C59.7301 41.5699 60.7501 41.1399 61.4801 40.3999C62.2301 39.6499 62.6401 38.6499 62.6401 37.5899C62.6401 36.5299 62.2301 35.5299 61.4801 34.7799C60.7401 34.0299 59.7501 33.6099 58.6901 33.6099Z" fill="#242124"/>
<path d="M35.9201 18.1598L35.7901 18.3098C34.2901 20.1698 32.3301 21.6197 30.1301 22.5197L29.9901 22.5797L29.8501 22.5298C27.3401 21.5498 25.1701 19.8697 23.5901 17.6797C22.1701 15.4597 21.9201 13.2097 22.8801 11.4897C23.1501 10.9597 23.5701 10.4898 24.0801 10.1598C24.6001 9.82976 25.1901 9.63974 25.8001 9.60974C27.6001 9.60974 28.6501 11.1898 29.1201 12.1398C29.2801 12.4598 29.6301 12.6497 29.9501 12.6497C30.3001 12.6497 30.6201 12.4398 30.7801 12.1298C31.6401 10.3498 32.8401 9.36974 34.1501 9.35974C34.8001 9.39974 35.4001 9.59975 35.9101 9.95975C36.4201 10.3197 36.8301 10.8098 37.0801 11.3798C38.0501 13.3098 37.6201 15.8498 35.9201 18.1598ZM36.8301 8.34976C36.0201 7.81976 35.0801 7.52977 34.1101 7.50977C32.5801 7.56977 31.1501 8.32974 30.2201 9.57974L29.9301 9.95975L29.6301 9.58975C28.7101 8.48975 27.3601 7.81977 25.9401 7.75977H25.9301C24.9901 7.75977 24.0501 8.01974 23.2301 8.51974C22.4101 9.00974 21.7301 9.72974 21.2801 10.5797C19.9701 12.9297 20.2401 15.8797 22.0301 18.6797C23.2801 20.5097 24.9801 22.0598 26.9201 23.1598C27.8601 23.7698 28.8601 24.2097 29.9301 24.4597C31.0201 24.2597 32.0801 23.8097 32.9901 23.1797C34.7201 22.1597 36.2001 20.8498 37.4001 19.2798C39.5201 16.3898 40.0101 13.1298 38.7001 10.5398C38.2901 9.62976 37.6401 8.87976 36.8301 8.34976Z" fill="#242124"/>
<path d="M47.5201 39.7099C46.6601 39.7099 45.9001 39.1999 45.5701 38.3999C45.2401 37.6099 45.4201 36.6999 46.0301 36.0899C46.6401 35.4799 47.54 35.2999 48.33 35.6299C49.12 35.9599 49.6301 36.7299 49.6301 37.5899C49.6201 38.7599 48.6801 39.7099 47.5201 39.7099ZM47.5101 33.6099C46.4701 33.6099 45.4501 34.0299 44.7101 34.7699C43.9701 35.5099 43.55 36.5399 43.55 37.5799C43.55 38.6199 43.9701 39.6499 44.7101 40.3899C45.4601 41.1399 46.4501 41.5599 47.5101 41.5599C48.5501 41.5599 49.5701 41.1299 50.3101 40.3899C51.0501 39.6499 51.4701 38.6199 51.4701 37.5799C51.4701 36.5299 51.0401 35.5099 50.3101 34.7699C49.5601 34.0299 48.5701 33.6099 47.5101 33.6099Z" fill="#242124"/>
<path d="M69.8701 39.7099C69.0101 39.7099 68.2502 39.1999 67.9202 38.3999C67.5902 37.5999 67.7701 36.6999 68.3701 36.0899C68.9801 35.4799 69.8802 35.2999 70.6702 35.6299C71.4602 35.9599 71.9702 36.7299 71.9702 37.5899C71.9702 38.7599 71.0301 39.7099 69.8701 39.7099ZM69.8701 33.6099C68.8301 33.6099 67.8102 34.0299 67.0702 34.7699C66.3202 35.5199 65.9102 36.5199 65.9102 37.5799C65.9102 38.6399 66.3202 39.6399 67.0702 40.3999C67.8202 41.1499 68.8101 41.5599 69.8701 41.5599C70.9101 41.5599 71.9302 41.1399 72.6702 40.3899C73.4102 39.6499 73.8302 38.6199 73.8302 37.5799C73.8302 36.5199 73.4202 35.5199 72.6702 34.7699C71.9102 34.0299 70.9201 33.6099 69.8701 33.6099Z" fill="#242124"/>
<path d="M78.8301 29.0298V46.1599C78.8301 47.5599 78.2901 48.8699 77.3101 49.8499C76.3401 50.8199 75.0001 51.3799 73.6401 51.3799H68.8901C68.5301 51.3799 68.2101 51.5899 68.0601 51.9199C66.6601 54.9399 64.0301 56.6798 60.0301 57.2398L59.2001 57.3598L59.6701 56.6599C60.5201 55.3899 61.1001 53.9899 61.4001 52.4799C61.4501 52.2099 61.3801 51.9298 61.2001 51.7198C61.0201 51.5098 60.7701 51.3799 60.4901 51.3799H43.7601C42.3701 51.3799 41.0701 50.8399 40.0901 49.8499C39.1201 48.8799 38.5701 47.5299 38.5701 46.1599V31.6198H44.9101C46.7901 31.6198 48.5501 30.8798 49.8801 29.5498C51.2101 28.2098 51.9401 26.4398 51.9401 24.5498V23.8199H73.6401C75.0101 23.8199 76.3501 24.3799 77.3101 25.3499C78.2901 26.3199 78.8301 27.6298 78.8301 29.0298ZM46.9801 68.8298C46.9801 70.3798 46.3801 71.8299 45.2901 72.9199C44.2001 74.0099 42.7501 74.6198 41.2201 74.6198H22.9401C22.6701 74.6198 22.4101 74.7398 22.2301 74.9598C22.0501 75.1698 21.9801 75.4499 22.0301 75.7299C22.3701 77.4399 23.0501 79.0399 24.0501 80.4799L24.5301 81.1699L23.6901 81.0598C19.1301 80.4898 16.1501 78.5499 14.5801 75.1599C14.4301 74.8299 14.1001 74.6198 13.7501 74.6198H8.56009C7.02009 74.6198 5.58008 74.0099 4.49008 72.9199C3.40008 71.8299 2.80008 70.3698 2.80008 68.8298V50.1198C2.80008 48.5698 3.40008 47.1198 4.49008 46.0298C5.58008 44.9398 7.02009 44.3298 8.56009 44.3298H36.7001V46.1599C36.7001 48.0499 37.4401 49.8299 38.7701 51.1599C40.1001 52.4999 41.8701 53.2298 43.7401 53.2398H46.9701V68.8298H46.9801ZM28.1601 29.7599C27.8801 29.7599 27.6201 29.8799 27.4501 30.0999C27.2701 30.3099 27.2001 30.5898 27.2501 30.8698C27.5501 32.3698 28.1301 33.7798 28.9801 35.0498L29.4501 35.7498L28.6201 35.6399C24.6201 35.0799 21.9901 33.3399 20.5901 30.3199C20.4401 29.9899 20.1101 29.7798 19.7601 29.7798H15.0101C13.6201 29.7798 12.3201 29.2398 11.3401 28.2498C10.3601 27.2598 9.8201 25.9498 9.8201 24.5598V7.42984C9.8201 6.04984 10.3701 4.70985 11.3401 3.73985C12.3201 2.74985 13.6301 2.20985 15.0201 2.20985H44.9001C46.2701 2.20985 47.6101 2.76985 48.5701 3.73985C49.5501 4.72985 50.0901 6.03984 50.0901 7.42984V24.5598C50.0901 25.9598 49.5501 27.2698 48.5701 28.2498C47.5901 29.2398 46.2801 29.7798 44.9001 29.7798L28.1601 29.7599ZM78.6001 24.0198C77.2701 22.6898 75.5101 21.9498 73.6301 21.9398H51.9301V7.40985C51.9301 5.51985 51.1901 3.73985 49.8601 2.40985C48.5301 1.06985 46.7601 0.339844 44.8901 0.339844H15.0001C13.1201 0.339844 11.3601 1.07985 10.0301 2.41985C8.70009 3.75985 7.97008 5.52986 7.96008 7.41986V24.5498C7.96008 26.4398 8.70009 28.2198 10.0301 29.5498C11.3601 30.8898 13.1301 31.6198 15.0001 31.6198H19.1801L19.2901 31.8098C21.4201 35.6698 25.5401 37.6399 31.5201 37.6699C31.8901 37.6699 32.2201 37.4498 32.3701 37.1098C32.5201 36.7698 32.4501 36.3699 32.1901 36.0999C31.0601 34.9599 30.1701 33.6199 29.5401 32.1399L29.3201 31.6198H36.7001V42.4698H8.56009C6.53009 42.4698 4.62009 43.2698 3.19009 44.7098C1.75009 46.1498 0.960083 48.0798 0.960083 50.1198V68.8298C0.960083 70.8698 1.75009 72.7898 3.19009 74.2398C4.63009 75.6798 6.5401 76.4799 8.5701 76.4799H13.1901L13.3001 76.6699C15.6101 80.8999 20.0901 83.0598 26.6301 83.0898C27.0001 83.0898 27.3301 82.8698 27.4801 82.5298C27.6301 82.1898 27.5601 81.7898 27.3001 81.5198C26.0101 80.2198 25.0001 78.6998 24.3201 76.9898L24.1101 76.4799H41.2301C43.2601 76.4799 45.1701 75.6798 46.6001 74.2398C48.0401 72.7998 48.8301 70.8698 48.8301 68.8298V53.2299H59.3101L59.0901 53.7498C58.4601 55.2398 57.5701 56.5798 56.4301 57.7198C56.1801 57.9798 56.1101 58.3798 56.2601 58.7198C56.4101 59.0598 56.7401 59.2798 57.1101 59.2798C63.0801 59.2798 67.2001 57.3099 69.3501 53.4199L69.4601 53.2299H73.6401C75.5201 53.2299 77.2801 52.4898 78.6101 51.1498C79.9401 49.8098 80.6701 48.0398 80.6801 46.1498V29.0198C80.6701 27.1398 79.9301 25.3598 78.6001 24.0198Z" fill="#242124"/>
</svg>
