<svg width="80" height="89" viewBox="0 0 80 89" fill="none" xmlns="http://www.w3.org/2000/svg">
<path d="M53.69 14.1498L53.73 14.1698C53.93 14.2998 54.11 14.3698 54.29 14.3698C54.58 14.3698 55.09 14.2998 55.34 13.8098L59.27 6.96983C59.43 6.68983 59.47 6.32983 59.38 5.98983C59.29 5.65983 59.09 5.37982 58.8 5.22982C58.61 5.11982 58.39 5.06982 58.16 5.06982C58.04 5.06982 57.93 5.07983 57.81 5.10983C57.48 5.19983 57.2 5.39982 57.05 5.68982L53.13 12.5098C52.9 12.9698 53.08 13.8098 53.69 14.1498Z" fill="#2B292B"/>
<path d="M45.7001 77.5298H34.1301C33.4801 77.5298 32.8601 78.1498 32.8601 78.7998C32.8601 79.4498 33.4801 80.0698 34.1301 80.0698H45.7001C46.3501 80.0698 46.9701 79.4498 46.9701 78.7998C46.9701 78.0098 46.3101 77.5298 45.7001 77.5298Z" fill="#2B292B"/>
<path d="M52.3001 35.8001C51.7701 35.4101 50.9501 35.54 50.4601 36.1L46.3501 41.7601L42.6801 36.6201C42.4901 36.3101 42.2101 36.1601 41.7001 36.0801C41.3801 36.0901 41.0101 36.21 40.6801 36.45L36.2201 40.8201L30.3701 36.2601C29.8301 35.8501 29.0001 35.9401 28.5301 36.4701C28.1401 36.9901 28.2301 37.82 28.7601 38.28L35.4601 43.49C35.9901 43.88 36.6501 43.83 37.1301 43.34L41.3701 39.1L45.1701 44.4301C45.4501 44.7801 45.7801 44.9701 46.1601 44.9701C46.5601 44.9701 46.9501 44.7701 47.1301 44.4701L52.4901 37.2301C52.7201 37.0601 52.7701 36.8301 52.7701 36.6601C52.7701 36.3501 52.5901 36.0101 52.3001 35.8001Z" fill="#2B292B"/>
<path d="M34.1201 74.4702H45.6901C46.3501 74.4702 46.9601 73.8502 46.9601 73.2002C46.9601 72.5502 46.3401 71.9302 45.6901 71.9302H34.1201C33.3701 71.9302 32.8501 72.4502 32.8501 73.2002C32.8501 73.8602 33.4701 74.4702 34.1201 74.4702Z" fill="#2B292B"/>
<path d="M65.39 24.4498C65.56 24.4498 65.84 24.3898 66.04 24.2498L72.78 20.1298C73.39 19.7198 73.57 18.9898 73.18 18.4098C72.91 17.9998 72.51 17.7798 72.1 17.7798C71.88 17.7798 71.65 17.8498 71.44 17.9798L64.7 22.0998C64.41 22.2898 64.2 22.5798 64.12 22.8998C64.04 23.2198 64.1 23.5298 64.3 23.8198C64.54 24.2698 65.02 24.4498 65.39 24.4498Z" fill="#2B292B"/>
<path d="M39.8201 10.6299C40.4701 10.6299 41.09 10.0099 41.09 9.35994V1.70994C41.09 1.05994 40.4701 0.439941 39.8201 0.439941C39.1701 0.439941 38.55 1.05994 38.55 1.70994V9.35994C38.54 10.1499 39.2001 10.6299 39.8201 10.6299Z" fill="#2B292B"/>
<path d="M24.2201 13.64C24.4101 14.07 24.8601 14.36 25.3501 14.36C25.5401 14.36 25.7401 14.29 25.8701 14.23C26.4701 13.9 26.7501 13.15 26.4801 12.55L22.9401 5.48002C22.6901 5.04002 22.2201 4.77002 21.7501 4.77002C21.5801 4.77002 21.4101 4.80002 21.2601 4.87002C20.6801 5.19002 20.4001 5.94002 20.6701 6.54002L24.2201 13.64Z" fill="#2B292B"/>
<path d="M13.5101 24.0699C13.7801 24.2499 14.0401 24.3499 14.2501 24.3499C14.6601 24.3499 15.0701 24.1399 15.3501 23.7899C15.5201 23.5299 15.6001 23.1899 15.5401 22.8799C15.4801 22.5599 15.2901 22.2899 15.0001 22.0899L8.55005 17.5099C7.95005 17.1099 7.23005 17.2399 6.83005 17.8499C6.63005 18.1199 6.55007 18.4299 6.60007 18.7299C6.65007 19.0399 6.82005 19.3099 7.08005 19.5099L13.5101 24.0699Z" fill="#2B292B"/>
<path d="M49.0701 62.09L49.0001 62.11C45.6401 63 42.5101 63.43 39.4501 63.43C36.6301 63.43 33.9001 63.09 31.7501 62.48C22.4801 59.16 16.2701 50.27 16.2701 40.34C16.2701 27.35 26.8401 16.79 39.8201 16.79C52.8001 16.79 63.3701 27.36 63.3701 40.34C63.3701 49.8 57.7601 58.33 49.0701 62.09ZM52.0801 83.37C52.0801 84.57 51.1001 85.55 49.9001 85.55H29.6501C28.4501 85.55 27.4701 84.57 27.4701 83.37V63.89L28.1401 64.14C28.7701 64.38 29.6501 64.63 30.9801 64.96C37.0501 67.18 43.6501 67.05 49.8001 64.52L49.9101 64.49C50.3501 64.42 50.8501 64.27 51.3901 64.05L52.0801 63.77V83.37ZM39.8201 14.25C25.4301 14.25 13.7201 25.96 13.7201 40.35C13.7201 48.77 17.8601 56.75 24.8001 61.69L25.0101 61.84V83.38C25.0101 85.99 27.1301 88.11 29.7401 88.11H49.9901C52.6001 88.11 54.7201 85.99 54.7201 83.38V61.84L54.9301 61.69C61.8701 56.75 66.0101 48.77 66.0101 40.35C65.9201 25.96 54.1701 14.25 39.8201 14.25Z" fill="#2B292B"/>
<path d="M78.1801 35.9897H70.3401C69.6901 35.9897 69.0701 36.6098 69.0701 37.2598C69.0701 37.9098 69.6901 38.5297 70.3401 38.5297H78.1801C78.8301 38.5297 79.4501 37.9098 79.4501 37.2598C79.4501 36.6498 78.9601 35.9897 78.1801 35.9897Z" fill="#2B292B"/>
<path d="M9.30005 35.9897H1.46005C0.810053 35.9897 0.190063 36.6098 0.190063 37.2598C0.190063 37.9098 0.810053 38.5297 1.46005 38.5297H9.30005C9.95005 38.5297 10.5701 37.9098 10.5701 37.2598C10.5701 36.6098 9.95005 35.9897 9.30005 35.9897Z" fill="#2B292B"/>
</svg>
