<svg width="85" height="88" viewBox="0 0 85 88" fill="none" xmlns="http://www.w3.org/2000/svg">
<path d="M38.9701 5.97021H37.1201V7.93021H38.9701V5.97021Z" fill="white"/>
<path d="M78.8201 11.8799H76.9701V31.5699H78.8201V11.8799Z" fill="white"/>
<path d="M27.5901 5.97021H25.7401V7.93021H27.5901V5.97021Z" fill="white"/>
<path d="M27.5901 11.8799H25.7401V27.1399H27.5901V11.8799Z" fill="white"/>
<path d="M33.2802 26.6602H31.4302V28.6201H33.2802V26.6602Z" fill="white"/>
<path d="M44.6601 26.6602H42.8101V31.5702H44.6601V26.6602Z" fill="white"/>
<path d="M61.7401 22.23H59.8901V31.58H61.7401V22.23Z" fill="white"/>
<path d="M56.0502 19.27H54.2002V31.57H56.0502V19.27Z" fill="white"/>
<path d="M78.8102 35.5303H38.5402V37.4903H78.8102V35.5303Z" fill="white"/>
<path d="M33.2802 5.97021H31.4302V7.93021H33.2802V5.97021Z" fill="white"/>
<path d="M73.1302 13.3599H71.2802V31.5699H73.1302V13.3599Z" fill="white"/>
<path d="M67.4301 16.3203H65.5801V31.5803H67.4301V16.3203Z" fill="white"/>
<mask id="mask0_406_221" style="mask-type:luminance" maskUnits="userSpaceOnUse" x="0" y="0" width="85" height="88">
<path d="M84.5101 0.0600586H0.120117V87.7301H84.5101V0.0600586Z" fill="white"/>
</mask>
<g mask="url(#mask0_406_221)">
<path d="M44.7601 85.2998C44.3701 85.6098 43.8801 85.7798 43.3801 85.7798H43.3701H4.24011C2.98011 85.7798 1.96011 84.7298 1.96011 83.4298C1.96011 82.9198 2.11012 82.4398 2.41012 82.0298L6.04013 76.9998C6.16013 76.8298 6.23013 76.6199 6.23013 76.4099V61.6299C6.23013 51.5799 14.1201 43.3998 23.8101 43.3998C33.5001 43.3998 41.3901 51.5799 41.3901 61.6299V76.4099C41.3901 76.6199 41.4601 76.8399 41.5801 77.0099L45.2101 82.0298C45.9601 83.0498 45.7601 84.5198 44.7601 85.2998ZM15.0701 34.3499L15.7701 33.8899C17.2901 32.8899 19.1701 32.7698 20.7901 33.5798C22.7101 34.5298 24.9301 34.5298 26.8501 33.5798C28.4701 32.7798 30.3401 32.8899 31.8601 33.8899L32.5601 34.3499L28.6801 42.0999L28.2901 41.9998C25.3601 41.2498 22.2701 41.2498 19.3401 41.9998L18.9501 42.0999L15.0701 34.3499ZM43.2401 76.0798V61.6299C43.2301 53.3099 38.4101 45.9499 30.9801 42.8799L30.4801 42.6699L34.5901 34.4598C34.8101 34.0098 34.6701 33.4498 34.2601 33.1798L32.8401 32.2299C30.7901 30.8799 28.2501 30.7198 26.0501 31.8098C24.6301 32.5098 22.9901 32.5098 21.5701 31.8098C20.6001 31.3298 19.5701 31.0898 18.5401 31.0898C17.2301 31.0898 15.9301 31.4699 14.7801 32.2299L13.3601 33.1798C12.9601 33.4498 12.8101 34.0098 13.0401 34.4598L17.1501 42.6699L16.6501 42.8799C9.21012 45.9499 4.40014 53.3099 4.39014 61.6299V76.0798L0.950133 80.8398C-0.419867 82.7398 -0.04988 85.4499 1.78012 86.8799C2.49012 87.4299 3.37012 87.7299 4.25012 87.7299H43.3901C44.4901 87.7299 45.5201 87.2899 46.3001 86.4799C47.0801 85.6699 47.5101 84.5798 47.5201 83.4298C47.5201 82.4998 47.2201 81.5798 46.6901 80.8398L43.2401 76.0798Z" fill="white"/>
</g>
<path d="M38.9701 25.1802H37.1201V31.5702H38.9701V25.1802Z" fill="white"/>
<path d="M25.4401 57.7003H24.7301V54.7402H22.8801V57.7003H22.1701C20.2101 57.7003 18.6101 59.3703 18.6101 61.4203C18.6101 62.8403 19.3701 64.1202 20.5901 64.7502L26.2101 67.6703C27.0501 68.1003 27.3901 69.1602 26.9701 70.0202C26.6801 70.6202 26.0801 71.0002 25.4301 71.0002H22.1701C21.3201 71.0002 20.6101 70.3602 20.4801 69.5202H18.6201C18.7601 71.4402 20.3001 72.9503 22.1701 72.9503H22.8801V75.9102H24.7301V72.9503H25.4401C27.4001 72.9503 29.0001 71.2803 29.0001 69.2303C29.0001 67.8103 28.2401 66.5302 27.0201 65.9002L21.4001 62.9803C20.5601 62.5503 20.2201 61.4902 20.6401 60.6302C20.9201 60.0302 21.5301 59.6502 22.1801 59.6502H25.4401C26.3901 59.6502 27.1501 60.4402 27.1601 61.4102V62.6003H29.0101V61.4102C29.0001 59.3702 27.4101 57.7003 25.4401 57.7003Z" fill="white"/>
<path d="M68.6401 85.7702C66.4001 85.7702 64.5801 83.8902 64.5801 81.5802C64.5801 79.2702 66.4001 77.3802 68.6401 77.3802C70.8801 77.3802 72.7001 79.2602 72.7001 81.5802C72.7001 83.8902 70.8801 85.7702 68.6401 85.7702ZM68.6401 75.4302C65.3801 75.4302 62.7401 78.1902 62.7401 81.5802C62.7401 84.9702 65.3901 87.7302 68.6401 87.7302C71.9001 87.7302 74.5401 84.9702 74.5401 81.5802C74.5401 78.1902 71.8901 75.4302 68.6401 75.4302Z" fill="white"/>
<path d="M4.4101 22.8C5.1501 22.26 5.8001 21.59 6.3201 20.81L6.73011 20.2L7.14011 20.81C7.66011 21.58 8.31008 22.25 9.05008 22.8L9.6001 23.2L9.05008 23.6C8.31008 24.14 7.66011 24.81 7.14011 25.59L6.73011 26.2L6.3201 25.59C5.8001 24.81 5.1501 24.15 4.4101 23.6L3.86008 23.2L4.4101 22.8ZM0.90009 24.17C3.43009 24.61 5.41008 26.66 5.83008 29.28C5.87008 29.55 6.01011 29.77 6.23011 29.92C6.43011 30.06 6.66011 30.11 6.89011 30.07C7.28011 30 7.58009 29.68 7.65009 29.27C8.07009 26.65 10.0501 24.6 12.5801 24.16C13.0901 24.07 13.4301 23.56 13.3401 23.03C13.2701 22.62 12.9701 22.3 12.5801 22.23C10.0501 21.79 8.07009 19.74 7.65009 17.12C7.61009 16.86 7.4701 16.63 7.2501 16.47C7.0501 16.33 6.82009 16.28 6.59009 16.32C6.20009 16.39 5.90008 16.71 5.83008 17.12C5.41008 19.74 3.43009 21.79 0.90009 22.23C0.40009 22.32 0.0501111 22.83 0.140111 23.36C0.200111 23.78 0.51009 24.1 0.90009 24.17Z" fill="white"/>
<path d="M77.8902 0.0600586H26.6602C23.0202 0.0600586 20.0502 3.16007 20.0402 6.95007V27.1401H21.8902V6.95007C21.8902 4.23007 24.0302 2.02005 26.6602 2.02005H77.8902C80.5202 2.02005 82.6602 4.23007 82.6602 6.95007V41.4401H38.5402V43.4001H82.6602V46.8501C82.6602 49.5701 80.5202 51.7801 77.8902 51.7801H47.0801V53.7301H57.2502L59.6302 63.6001H47.0901V65.5601H66.0102V63.6001H61.5302L59.1501 53.7301H77.8902C81.5302 53.7201 84.5002 50.6301 84.5002 46.8401V6.94006C84.5102 3.16006 81.5402 0.0700586 77.8902 0.0600586Z" fill="white"/>
<path d="M54.4101 79.86C52.1701 79.86 50.3501 77.98 50.3501 75.67C50.3501 73.36 52.1701 71.47 54.4101 71.47C56.6501 71.47 58.4701 73.35 58.4701 75.67C58.4701 77.98 56.6501 79.86 54.4101 79.86ZM54.4101 69.52C51.1501 69.52 48.5101 72.28 48.5101 75.67C48.5101 79.06 51.1601 81.82 54.4101 81.82C57.6701 81.82 60.3101 79.06 60.3101 75.67C60.3101 72.28 57.6601 69.52 54.4101 69.52Z" fill="white"/>
<path d="M50.3601 22.23H48.5101V31.58H50.3601V22.23Z" fill="white"/>
</svg>
