<svg width="87" height="88" viewBox="0 0 87 88" fill="none" xmlns="http://www.w3.org/2000/svg">
<path d="M21.89 35.2501H23.74V37.0601C23.74 37.6801 24.26 38.1801 24.91 38.1801C25.55 38.1801 26.08 37.6801 26.08 37.0601V35.2501H27.93C28.57 35.2501 29.1 34.7501 29.1 34.1301C29.1 33.5101 28.58 33.0101 27.93 33.0101H26.08V31.2001C26.08 30.5801 25.56 30.0801 24.91 30.0801C24.27 30.0801 23.74 30.5801 23.74 31.2001V33.0001H21.89C21.25 33.0001 20.72 33.5001 20.72 34.1201C20.72 34.7401 21.25 35.2501 21.89 35.2501Z" fill="white"/>
<path d="M15.33 77.8701C15.02 77.8701 14.72 77.9901 14.5 78.2001C14.29 78.4101 14.16 78.7001 14.16 78.9901C14.16 79.2801 14.28 79.5701 14.5 79.7801C14.94 80.2101 15.73 80.2001 16.17 79.7801C16.38 79.5701 16.51 79.2901 16.51 78.9901C16.51 78.7001 16.39 78.4101 16.17 78.2001C15.94 77.9901 15.64 77.8701 15.33 77.8701Z" fill="white"/>
<path d="M83.01 57.7799L75.58 64.9999C70.86 69.5899 64.59 72.1099 57.93 72.1099H32.72L32.58 72.0299L12.39 60.6999L17.6 55.6299C21.41 51.9299 26.48 49.8899 31.86 49.8899C35.54 49.8899 38.99 51.2799 41.6 53.8099C41.82 54.0299 42.12 54.1399 42.43 54.1399H54.07C56.13 54.1399 57.8 55.7699 57.8 57.7799C57.8 59.7899 56.13 61.4199 54.07 61.4199H40.57C39.92 61.4199 39.4 61.9199 39.4 62.5399C39.4 63.1599 39.92 63.6599 40.57 63.6599H57.84C63.12 63.6599 68.08 61.6599 71.81 58.0399L77.57 52.4399C78.92 51.1199 81.03 50.9699 82.57 52.0699C83.48 52.7199 84.05 53.7199 84.13 54.8199C84.22 55.9199 83.81 56.9999 83.01 57.7799ZM83.97 50.2799C81.48 48.4999 78.09 48.7499 75.91 50.8699L70.15 56.4699C67.41 59.1299 63.94 60.7999 60.12 61.2799L58.98 61.4199L59.51 60.3999C59.93 59.5799 60.15 58.6899 60.15 57.7799C60.15 54.5299 57.43 51.8899 54.08 51.8899H42.92L42.78 51.7599C39.78 49.0899 35.92 47.6299 31.88 47.6299C25.86 47.6299 20.21 49.9099 15.95 54.0399L10.32 59.5099L8.76003 58.6299C8.20003 58.3099 7.48003 58.4999 7.16003 59.0399L0.320031 70.5499C0.170031 70.7999 0.130036 71.0999 0.200036 71.3799C0.280036 71.6699 0.470014 71.9199 0.740014 72.0699L7.83001 76.0499C8.10001 76.1999 8.42003 76.2399 8.73003 76.1599C9.03003 76.0799 9.28003 75.8999 9.44003 75.6299C9.59003 75.3699 9.63001 75.0699 9.55001 74.7899C9.47001 74.4999 9.28003 74.2599 9.01003 74.1099L2.91003 70.6899L8.59002 61.1299L34.64 75.7499L28.96 85.3099L22.84 81.8699C22.66 81.7699 22.46 81.7199 22.25 81.7199C21.83 81.7199 21.44 81.9399 21.23 82.2899C21.08 82.5399 21.04 82.8399 21.11 83.1199C21.19 83.4099 21.38 83.6599 21.65 83.8099L28.79 87.8199C29.34 88.1299 30.09 87.9299 30.4 87.4099L37.23 75.8999C37.38 75.6499 37.42 75.3599 37.35 75.0799L37.16 74.3299H57.92C65.22 74.3299 72.08 71.5699 77.24 66.5499L84.67 59.3299C85.94 58.0899 86.6 56.3799 86.46 54.6399C86.33 52.9199 85.42 51.3199 83.97 50.2799Z" fill="white"/>
<path d="M67.09 6.0201H68.94V7.83009C68.94 8.45009 69.46 8.95009 70.11 8.95009C70.75 8.95009 71.28 8.45009 71.28 7.83009V6.0201H73.13C73.77 6.0201 74.3 5.52009 74.3 4.90009C74.3 4.28009 73.78 3.78009 73.13 3.78009H71.28V1.97009C71.28 1.35009 70.76 0.850098 70.11 0.850098C69.47 0.850098 68.94 1.35009 68.94 1.97009V3.78009H67.09C66.45 3.78009 65.92 4.28009 65.92 4.90009C65.92 5.51009 66.44 6.0201 67.09 6.0201Z" fill="white"/>
<path d="M36.24 21.98C36.29 21.83 36.46 21.48 36.94 21.48H48.01C48.52 21.48 48.97 21.17 49.12 20.7L52.51 10.5C52.66 10.05 53.05 10 53.21 10C53.37 10 53.76 10.05 53.91 10.5L57.3 20.71C57.45 21.18 57.9 21.49 58.41 21.49H69.48C69.96 21.49 70.13 21.84 70.18 21.99C70.22 22.11 70.32 22.53 69.9 22.82L60.93 29.12C60.52 29.41 60.35 29.91 60.51 30.37L63.95 40.58C64.1 41.04 63.81 41.31 63.68 41.4C63.6 41.46 63.44 41.55 63.25 41.55C63.12 41.55 62.98 41.51 62.83 41.4L53.91 35.07C53.49 34.78 52.94 34.77 52.52 35.07L43.59 41.4C43.47 41.48 43.05 41.63 42.73 41.4C42.6 41.31 42.31 41.04 42.46 40.58L45.9 30.36C46.06 29.9 45.89 29.4 45.48 29.11L36.51 22.8C36.1 22.51 36.2 22.1 36.24 21.98ZM35.13 24.61L43.42 30.44L40.24 39.88C39.82 41.13 40.26 42.43 41.35 43.21C42.45 43.99 43.88 43.99 44.98 43.2L53.21 37.36L61.44 43.2C62.52 43.97 63.98 43.97 65.07 43.2C66.16 42.43 66.6 41.12 66.18 39.88L63 30.44L71.29 24.61C72.39 23.84 72.82 22.54 72.41 21.29C71.99 20.04 70.84 19.23 69.48 19.23H59.27L59.15 18.89L56.13 9.81C55.71 8.56 54.56 7.75 53.2 7.75C51.84 7.75 50.69 8.56 50.27 9.81L47.14 19.23H36.92C35.56 19.23 34.41 20.04 33.99 21.29C33.6 22.54 34.04 23.84 35.13 24.61Z" fill="white"/>
</svg>
