<svg width="89" height="90" viewBox="0 0 89 90" fill="none" xmlns="http://www.w3.org/2000/svg">
<path d="M87.08 29.5801H65.5201V26.4701H87.08V29.5801ZM69.4801 83.4201V71.5801C69.4801 71.3801 69.4001 71.1801 69.2601 71.0401C69.1201 70.9001 68.9301 70.8201 68.7301 70.8201H65.5201V31.1101H84.4101V31.2901L84.4601 83.4301H69.4801V83.4201ZM84.4501 87.9801H69.4801V84.9401H84.4501V87.9801ZM67.9801 74.5501H20.6601V72.3301H67.9801V74.5501ZM67.9801 87.9801H65.5201V82.5801C65.5201 81.5901 65.1401 80.6601 64.4401 79.9501C63.7501 79.2501 62.8301 78.8601 61.8401 78.8601H57.2001C56.2201 78.8601 55.2901 79.2501 54.6001 79.9501C53.9001 80.6501 53.5201 81.5901 53.5201 82.5801V87.9801H50.3V82.5801C50.3 81.5901 49.9101 80.6601 49.2201 79.9501C48.5301 79.2501 47.6001 78.8601 46.6201 78.8601H41.9801C41.0001 78.8601 40.0701 79.2501 39.3801 79.9501C38.6801 80.6501 38.3 81.5901 38.3 82.5801V87.9801H35.08V82.5801C35.08 81.5901 34.6901 80.6601 34.0001 79.9501C33.3101 79.2501 32.3801 78.8601 31.4001 78.8601H26.7601C25.8001 78.8801 24.8901 79.2801 24.2201 79.9801C23.5401 80.6801 23.1701 81.6001 23.1701 82.5801V87.9801H20.6601V76.0801H67.9801V87.9801ZM64.0101 87.9801H60.2801V80.3901H61.8501C63.0501 80.4001 64.0201 81.3801 64.0201 82.5901V87.9801H64.0101ZM58.7701 87.9801H55.0401V82.5801C55.0401 81.3701 56.0201 80.3801 57.2201 80.3801H58.7801V87.9801H58.7701ZM48.8 87.9801H45.0601V80.3901H46.6201C47.8201 80.3901 48.8 81.3801 48.8 82.5901V87.9801ZM43.5601 87.9801H39.83V82.5801C39.83 81.3701 40.8101 80.3801 42.0101 80.3801H43.5701V87.9801H43.5601ZM33.5901 87.9801H29.86V80.3901H31.4201C32.6201 80.3901 33.6001 81.3801 33.6001 82.5901V87.9801H33.5901ZM28.3501 87.9801H24.6601V82.5801C24.6601 81.3701 25.63 80.3901 26.83 80.3801H28.4001L28.3501 87.9801ZM19.1501 71.5801V83.4301H4.18005V31.1101H23.1701V70.8201H19.9101C19.4901 70.8201 19.1501 71.1601 19.1501 71.5801ZM19.1501 87.9801H4.18005V84.9401H19.1501V87.9801ZM1.55005 29.5901L1.56006 26.4801H23.1601V29.5901H1.55005ZM64.0301 70.8201H24.6601V22.5301H64.0301V70.8201ZM21.8901 17.8901H66.7501V21.0001H21.8901V17.8901ZM87.83 24.9501H65.5101V22.5201H67.5401C67.7401 22.5201 67.9301 22.4401 68.0701 22.3001C68.2101 22.1601 68.2901 21.9701 68.2901 21.7601V17.1301C68.2901 16.9301 68.2101 16.7301 68.0701 16.5901C67.9301 16.4501 67.7401 16.3701 67.5401 16.3701H21.1301C20.7201 16.3701 20.3801 16.7101 20.3801 17.1301V21.7601C20.3801 21.9601 20.4601 22.1501 20.6001 22.3001C20.7401 22.4401 20.9301 22.5201 21.1301 22.5201H23.1601V24.9501H0.800049C0.390049 24.9501 0.0500488 25.2901 0.0500488 25.7101V30.3401C0.0500488 30.5401 0.13005 30.7301 0.27005 30.8801C0.41005 31.0201 0.600049 31.1001 0.800049 31.1001H2.67007V88.7401C2.67007 88.9401 2.75008 89.1301 2.89008 89.2801C3.03008 89.4201 3.22007 89.5001 3.42007 89.5001H85.2001C85.4001 89.5001 85.5901 89.4201 85.7301 89.2801C85.8701 89.1401 85.9501 88.9401 85.9501 88.7401V31.1101H87.8201C88.0201 31.1101 88.2101 31.0301 88.3501 30.8901C88.4901 30.7501 88.5701 30.5601 88.5701 30.3501V25.7201C88.5801 25.3001 88.24 24.9501 87.83 24.9501Z" fill="white"/>
<path d="M27.82 5.24988C27.63 5.45988 27.46 5.63988 27.32 5.78988C26.55 6.60988 26.55 6.60988 26.69 7.68988C26.72 7.90988 26.75 8.15988 26.79 8.46988L26.83 8.77988L26.55 8.64988C26.27 8.51988 26.04 8.40988 25.85 8.31988C24.88 7.85988 24.88 7.85988 23.91 8.31988C23.71 8.40988 23.48 8.51988 23.21 8.64988L22.93 8.77988L22.97 8.46988C23 8.22988 23.03 8.00988 23.05 7.82988C23.19 6.74988 23.19 6.61988 22.95 6.35988L21.81 5.01988L22.1 4.95988C22.37 4.89988 22.6 4.85988 22.8 4.81988C23.87 4.61988 23.87 4.61988 24.38 3.62988C24.48 3.43988 24.59 3.21988 24.74 2.95988L24.8901 2.67988L25.04 2.95988C25.16 3.17988 25.26 3.36988 25.35 3.52988C25.86 4.46988 25.92 4.57988 26.27 4.64988L28.04 5.00988L27.82 5.24988ZM29.63 3.79988L26.8901 3.23988L25.53 0.769882C25.4 0.529882 25.15 0.379883 24.88 0.379883C24.61 0.379883 24.36 0.529882 24.23 0.769882L22.86 3.23988L20.13 3.79988C19.86 3.84988 19.65 4.04988 19.56 4.30988C19.48 4.56988 19.54 4.85988 19.72 5.05988L21.61 7.13988L21.29 9.94988C21.27 10.2099 21.39 10.4799 21.6 10.6299C21.81 10.7899 22.1 10.8099 22.34 10.6999L24.87 9.53988L26.22 10.1799C27.53 10.7999 27.54 10.7899 27.69 10.7999C27.93 10.8099 28.13 10.7099 28.28 10.5499C28.42 10.3899 28.49 10.1699 28.46 9.94988L28.1401 7.13988L30.05 5.03988C30.22 4.83988 30.27 4.55988 30.19 4.30988C30.11 4.04988 29.9 3.85988 29.63 3.79988Z" fill="white"/>
<path d="M40.7901 5.24965C40.5901 5.46965 40.4201 5.64965 40.2801 5.79965C39.5101 6.61965 39.5101 6.61965 39.6601 7.70965C39.6901 7.91965 39.7201 8.16965 39.7601 8.47965L39.8001 8.78965L39.5201 8.65965C39.2401 8.52965 39.0101 8.41965 38.8201 8.32965C37.8501 7.86965 37.8501 7.86965 36.8701 8.32965C36.6701 8.41965 36.4401 8.52965 36.1601 8.65965L35.8801 8.78965L35.9201 8.47965C35.9501 8.19965 35.9801 7.96965 36.0001 7.75965C36.1301 6.72965 36.1301 6.60965 35.9001 6.35965L34.6701 5.01965L34.9701 4.95965C35.2501 4.89965 35.4901 4.85965 35.6901 4.81965C36.7901 4.61965 36.7901 4.61965 37.3301 3.61965C37.4301 3.43965 37.5401 3.21965 37.6801 2.96965L37.8301 2.68965L37.9801 2.96965C38.1101 3.18965 38.2101 3.38965 38.3101 3.55965C38.8201 4.47965 38.8801 4.58965 39.2301 4.65965L41.0001 5.01965L40.7901 5.24965ZM42.6101 3.79965L39.8601 3.23965L38.4701 0.76965C38.3401 0.52965 38.0901 0.389648 37.8201 0.389648C37.5501 0.389648 37.3001 0.53965 37.1701 0.76965L35.8001 3.23965L33.0401 3.79965C32.7701 3.84965 32.5601 4.04965 32.4701 4.30965C32.3901 4.56965 32.4501 4.85965 32.6301 5.05965L34.5401 7.13965L34.2201 9.94965C34.2001 10.2096 34.3201 10.4797 34.5301 10.6297C34.7501 10.7897 35.0301 10.8196 35.2701 10.6996L37.8201 9.53965L37.8901 9.56965C38.6601 9.91965 39.2101 10.1796 39.6001 10.3596C40.5301 10.7896 40.5301 10.7796 40.6601 10.7896C40.9001 10.7896 41.1101 10.6996 41.2501 10.5396C41.3901 10.3796 41.4601 10.1596 41.4401 9.93965L41.1201 7.12965L43.0501 5.02965C43.2201 4.82965 43.2701 4.54965 43.1901 4.29965C43.1001 4.04965 42.8801 3.85965 42.6101 3.79965Z" fill="white"/>
<path d="M53.7701 5.24965C53.5801 5.45965 53.4101 5.63965 53.2601 5.78965C52.4801 6.60965 52.4801 6.60965 52.6301 7.68965C52.6601 7.90965 52.6901 8.15965 52.7301 8.46965L52.7701 8.77965L52.4901 8.64965C52.2101 8.51965 51.9801 8.40965 51.7801 8.31965C50.8101 7.85965 50.8101 7.85965 49.8301 8.31965C49.6301 8.40965 49.4001 8.51965 49.1201 8.64965L48.8401 8.77965L48.8801 8.46965C48.9101 8.19965 48.9401 7.95965 48.9701 7.75965C49.1001 6.72965 49.1001 6.60965 48.8701 6.35965L47.6401 5.01965L47.9401 4.95965C48.2201 4.89965 48.4601 4.85965 48.6601 4.81965C49.7601 4.61965 49.7601 4.61965 50.3001 3.61965C50.4001 3.43965 50.5101 3.21965 50.6501 2.96965L50.8001 2.68965L50.9501 2.96965C51.0801 3.20965 51.2001 3.41965 51.2901 3.58965C51.7801 4.48965 51.8401 4.58965 52.1901 4.65965L53.9701 5.01965L53.7701 5.24965ZM55.6001 3.79965L52.8501 3.23965L51.4701 0.76965C51.3401 0.52965 51.0901 0.389648 50.8201 0.389648C50.5501 0.389648 50.3001 0.53965 50.1701 0.76965L48.7901 3.23965L46.0401 3.79965C45.7701 3.84965 45.5601 4.04965 45.4701 4.30965C45.3801 4.56965 45.4501 4.85965 45.6301 5.05965L47.5301 7.13965L47.2101 9.93965C47.1901 10.2096 47.3101 10.4697 47.5201 10.6297C47.7401 10.7897 48.0201 10.8196 48.2601 10.6996L50.8201 9.53965L50.8901 9.56965C51.6601 9.91965 52.2101 10.1796 52.5901 10.3596C53.5201 10.7896 53.5301 10.7996 53.6501 10.7896H53.6601C53.9001 10.7896 54.1001 10.6996 54.2401 10.5396C54.3801 10.3796 54.4501 10.1596 54.4301 9.93965L54.1101 7.12965L56.0401 5.02965C56.2101 4.82965 56.2601 4.54965 56.1801 4.29965C56.0801 4.04965 55.8601 3.85965 55.6001 3.79965Z" fill="white"/>
<path d="M66.75 5.24988C66.55 5.46988 66.38 5.64988 66.24 5.79988C65.47 6.61988 65.47 6.61988 65.62 7.70988C65.65 7.91988 65.69 8.17988 65.72 8.47988L65.76 8.78988L65.48 8.65988C65.2 8.52988 64.97 8.41988 64.77 8.32988C63.8 7.86988 63.8 7.86988 62.82 8.32988C62.63 8.41988 62.39 8.52988 62.11 8.65988L61.83 8.78988L61.87 8.47988C61.9 8.23988 61.93 8.01988 61.95 7.82988C62.09 6.74988 62.09 6.61988 61.85 6.35988L60.62 5.01988L60.93 4.95988C61.21 4.89988 61.45 4.85988 61.65 4.81988C62.75 4.61988 62.75 4.61988 63.29 3.61988C63.39 3.43988 63.51 3.21988 63.65 2.96988L63.8 2.69988L63.95 2.96988C64.07 3.18988 64.18 3.38988 64.27 3.55988C64.78 4.48988 64.84 4.58988 65.19 4.65988L66.97 5.01988L66.75 5.24988ZM68.59 3.79988L65.84 3.23988L64.44 0.769882C64.31 0.529882 64.05 0.379883 63.78 0.379883C63.51 0.379883 63.26 0.529882 63.12 0.769882L61.75 3.23988L59 3.79988C58.73 3.84988 58.52 4.04988 58.43 4.30988C58.35 4.56988 58.41 4.85988 58.59 5.05988L60.5 7.13988L60.18 9.94988C60.16 10.2099 60.28 10.4799 60.49 10.6299C60.71 10.7899 60.99 10.8199 61.23 10.6999L63.79 9.53988L63.86 9.56988C64.61 9.90988 65.15 10.1599 65.53 10.3399C66.5 10.7899 66.51 10.7799 66.63 10.7899C66.86 10.7699 67.08 10.6999 67.22 10.5399C67.36 10.3799 67.43 10.1599 67.41 9.93988L67.09 7.12988L69.02 5.02988C69.19 4.82988 69.24 4.54988 69.16 4.29988C69.07 4.04988 68.85 3.85988 68.59 3.79988Z" fill="white"/>
<path d="M10.9801 39.7201H7.6001V36.3101H10.9901V39.7201H10.9801ZM11.7301 34.8301H6.84009C6.43009 34.8301 6.09009 35.1701 6.09009 35.5901V40.5201C6.11009 40.9301 6.44009 41.2501 6.84009 41.2501H11.7301C11.9301 41.2501 12.1201 41.1701 12.2601 41.0301C12.4001 40.8901 12.4801 40.6901 12.4801 40.4901V35.6001C12.4801 35.4001 12.4001 35.2101 12.2601 35.0601C12.1201 34.9101 11.9301 34.8301 11.7301 34.8301Z" fill="white"/>
<path d="M19.79 39.7201H16.4V36.3101H19.79V39.7201ZM20.54 34.8301H15.65C15.24 34.8301 14.9 35.1701 14.9 35.5901V40.5201C14.92 40.9301 15.25 41.2501 15.65 41.2501H20.55C20.75 41.2501 20.94 41.1701 21.08 41.0301C21.22 40.8901 21.3 40.6901 21.3 40.4901V35.6001C21.3 35.4001 21.22 35.2001 21.08 35.0601C20.93 34.9101 20.74 34.8301 20.54 34.8301Z" fill="white"/>
<path d="M10.9801 48.7098H7.6001V45.2998H10.9901V48.7098H10.9801ZM11.7301 43.7798H6.84009C6.43009 43.7798 6.09009 44.1198 6.09009 44.5398V49.4698C6.09009 49.6698 6.17009 49.8698 6.31009 50.0098C6.45009 50.1498 6.64009 50.2298 6.84009 50.2298H11.7301C11.9301 50.2298 12.1201 50.1498 12.2601 50.0098C12.4001 49.8698 12.4801 49.6698 12.4801 49.4698V44.5398C12.4801 44.3398 12.4001 44.1398 12.2601 43.9998C12.1201 43.8598 11.9301 43.7798 11.7301 43.7798Z" fill="white"/>
<path d="M19.79 48.7098H16.4V45.2998H19.79V48.7098ZM20.54 43.7798H15.65C15.24 43.7798 14.9 44.1198 14.9 44.5398V49.4698C14.9 49.6698 14.98 49.8698 15.12 50.0098C15.26 50.1498 15.45 50.2298 15.65 50.2298H20.54C20.74 50.2298 20.93 50.1498 21.07 50.0098C21.21 49.8698 21.29 49.6698 21.29 49.4698V44.5398C21.29 44.3398 21.21 44.1398 21.07 43.9998C20.93 43.8598 20.74 43.7798 20.54 43.7798Z" fill="white"/>
<path d="M10.9801 57.7H7.6001V54.29H10.9901V57.7H10.9801ZM11.7301 52.77H6.84009C6.43009 52.77 6.09009 53.11 6.09009 53.53V58.46C6.09009 58.66 6.17009 58.85 6.31009 59C6.45009 59.14 6.64009 59.22 6.84009 59.22H11.7301C11.9301 59.22 12.1201 59.14 12.2601 59C12.4001 58.86 12.4801 58.66 12.4801 58.46V53.53C12.4801 53.33 12.4001 53.13 12.2601 52.99C12.1201 52.85 11.9301 52.77 11.7301 52.77Z" fill="white"/>
<path d="M19.79 57.7H16.4V54.29H19.79V57.7ZM20.54 52.77H15.65C15.24 52.77 14.9 53.11 14.9 53.53V58.46C14.9 58.66 14.98 58.85 15.12 59C15.26 59.14 15.45 59.22 15.65 59.22H20.54C20.74 59.22 20.93 59.14 21.07 59C21.21 58.86 21.29 58.66 21.29 58.46V53.53C21.29 53.33 21.21 53.13 21.07 52.99C20.93 52.85 20.74 52.77 20.54 52.77Z" fill="white"/>
<path d="M10.9801 66.69H7.6001V63.27H10.9901V66.69H10.9801ZM11.7301 61.75H6.84009C6.43009 61.75 6.09009 62.09 6.09009 62.51V67.45C6.09009 67.87 6.43009 68.21 6.84009 68.21H11.7301C11.9301 68.21 12.1201 68.13 12.2601 67.99C12.4001 67.85 12.4801 67.65 12.4801 67.45V62.51C12.4801 62.31 12.4001 62.12 12.2601 61.97C12.1201 61.83 11.9301 61.75 11.7301 61.75Z" fill="white"/>
<path d="M19.79 66.69H16.4V63.27H19.79V66.69ZM20.54 61.75H15.65C15.24 61.75 14.9 62.09 14.9 62.51V67.45C14.9 67.87 15.24 68.21 15.65 68.21H20.54C20.74 68.21 20.93 68.13 21.07 67.99C21.21 67.85 21.29 67.65 21.29 67.45V62.51C21.29 62.31 21.21 62.12 21.07 61.97C20.93 61.83 20.74 61.75 20.54 61.75Z" fill="white"/>
<path d="M10.9801 75.68H7.6001V72.27H10.9901V75.68H10.9801ZM11.7301 70.75H6.84009C6.43009 70.75 6.09009 71.09 6.09009 71.51V76.44C6.09009 76.64 6.17009 76.84 6.31009 76.98C6.45009 77.12 6.64009 77.2 6.84009 77.2H11.7301C11.9301 77.2 12.1201 77.12 12.2601 76.98C12.4001 76.84 12.4801 76.64 12.4801 76.44V71.51C12.4801 71.31 12.4001 71.11 12.2601 70.97C12.1201 70.83 11.9301 70.75 11.7301 70.75Z" fill="white"/>
<path d="M72.2301 39.7201H68.8401V36.3101H72.2301V39.7201ZM72.9801 34.8301H68.0901C67.6801 34.8301 67.3401 35.1701 67.3401 35.5901V40.5201C67.3601 40.9301 67.6901 41.2501 68.0901 41.2501H72.9901C73.1901 41.2501 73.3801 41.1701 73.5201 41.0301C73.6601 40.8901 73.7401 40.6901 73.7401 40.4901V35.6001C73.7401 35.4001 73.6601 35.2001 73.5201 35.0601C73.3701 34.9101 73.1801 34.8301 72.9801 34.8301Z" fill="white"/>
<path d="M81.04 39.7201H77.66V36.3101H81.04V39.7201ZM81.79 34.8301H76.9C76.49 34.8301 76.15 35.1701 76.15 35.5901V40.5201C76.17 40.9301 76.5 41.2501 76.9 41.2501H81.79C81.99 41.2501 82.18 41.1701 82.32 41.0301C82.46 40.8901 82.54 40.6901 82.54 40.4901V35.6001C82.54 35.4001 82.46 35.2101 82.32 35.0601C82.17 34.9101 81.99 34.8301 81.79 34.8301Z" fill="white"/>
<path d="M72.2301 48.7098H68.8401V45.2998H72.2301V48.7098ZM72.9801 43.7798H68.0901C67.6801 43.7798 67.3401 44.1198 67.3401 44.5398V49.4698C67.3401 49.6698 67.4201 49.8698 67.5601 50.0098C67.7001 50.1498 67.8901 50.2298 68.0901 50.2298H72.9801C73.1801 50.2298 73.3701 50.1498 73.5101 50.0098C73.6501 49.8698 73.7301 49.6698 73.7301 49.4698V44.5398C73.7301 44.3398 73.6501 44.1398 73.5101 43.9998C73.3701 43.8598 73.1801 43.7798 72.9801 43.7798Z" fill="white"/>
<path d="M81.04 48.7098H77.66V45.2998H81.04V48.7098ZM81.79 43.7798H76.9C76.49 43.7798 76.15 44.1198 76.15 44.5398V49.4698C76.15 49.6698 76.23 49.8698 76.37 50.0098C76.51 50.1498 76.7 50.2298 76.9 50.2298H81.79C81.99 50.2298 82.18 50.1498 82.32 50.0098C82.46 49.8698 82.54 49.6698 82.54 49.4698V44.5398C82.54 44.3398 82.46 44.1398 82.32 43.9998C82.17 43.8598 81.99 43.7798 81.79 43.7798Z" fill="white"/>
<path d="M72.2301 57.7H68.8401V54.29H72.2301V57.7ZM72.9801 52.77H68.0901C67.6801 52.77 67.3401 53.11 67.3401 53.53V58.46C67.3401 58.66 67.4201 58.85 67.5601 59C67.7001 59.14 67.8901 59.22 68.0901 59.22H72.9801C73.1801 59.22 73.3701 59.14 73.5101 59C73.6501 58.86 73.7301 58.66 73.7301 58.46V53.53C73.7301 53.33 73.6501 53.13 73.5101 52.99C73.3701 52.85 73.1801 52.77 72.9801 52.77Z" fill="white"/>
<path d="M81.04 57.7H77.66V54.29H81.04V57.7ZM81.79 52.77H76.9C76.49 52.77 76.15 53.11 76.15 53.53V58.46C76.15 58.66 76.23 58.86 76.37 59C76.51 59.14 76.7 59.22 76.9 59.22H81.79C81.99 59.22 82.18 59.14 82.32 59C82.46 58.86 82.54 58.66 82.54 58.46V53.53C82.54 53.33 82.46 53.13 82.32 52.99C82.17 52.85 81.99 52.77 81.79 52.77Z" fill="white"/>
<path d="M72.2301 66.69H68.8401V63.27H72.2301V66.69ZM72.9801 61.75H68.0901C67.6801 61.75 67.3401 62.09 67.3401 62.51V67.45C67.3401 67.87 67.6801 68.21 68.0901 68.21H72.9801C73.1801 68.21 73.3701 68.13 73.5101 67.99C73.6501 67.85 73.7301 67.65 73.7301 67.45V62.51C73.7301 62.31 73.6501 62.12 73.5101 61.97C73.3701 61.83 73.1801 61.75 72.9801 61.75Z" fill="white"/>
<path d="M81.04 66.69H77.66V63.27H81.04V66.69ZM81.79 61.75H76.9C76.49 61.75 76.15 62.09 76.15 62.51V67.45C76.15 67.87 76.49 68.21 76.9 68.21H81.79C81.99 68.21 82.18 68.13 82.32 67.99C82.46 67.85 82.54 67.66 82.54 67.45V62.51C82.54 62.31 82.46 62.12 82.32 61.97C82.17 61.83 81.99 61.75 81.79 61.75Z" fill="white"/>
<path d="M81.04 75.68H77.66V72.27H81.04V75.68ZM81.79 70.75H76.9C76.49 70.75 76.15 71.09 76.15 71.51V76.44C76.15 76.64 76.23 76.84 76.37 76.98C76.51 77.12 76.7 77.2 76.9 77.2H81.79C81.99 77.2 82.18 77.12 82.32 76.98C82.46 76.84 82.54 76.64 82.54 76.44V71.51C82.54 71.31 82.46 71.11 82.32 70.97C82.17 70.83 81.99 70.75 81.79 70.75Z" fill="white"/>
<path d="M34.65 32.21H31.27V28.79H34.66V32.21H34.65ZM35.4 27.27H30.51C30.1 27.27 29.76 27.61 29.76 28.03V32.97C29.76 33.17 29.84 33.37 29.98 33.51C30.12 33.65 30.31 33.73 30.51 33.73H35.4C35.6 33.73 35.79 33.65 35.93 33.51C36.07 33.37 36.15 33.17 36.15 32.97V28.03C36.15 27.83 36.07 27.64 35.93 27.49C35.79 27.35 35.6 27.27 35.4 27.27Z" fill="white"/>
<path d="M46.0101 32.21H42.6301V28.79H46.0101V32.21ZM46.7601 27.27H41.8701C41.4601 27.27 41.1201 27.61 41.1201 28.03V32.97C41.1201 33.17 41.2001 33.36 41.3401 33.51C41.4801 33.65 41.6701 33.73 41.8701 33.73H46.7601C46.9601 33.73 47.1501 33.65 47.2901 33.51C47.4301 33.37 47.5101 33.17 47.5101 32.97V28.03C47.5101 27.83 47.4301 27.64 47.2901 27.49C47.1501 27.35 46.9501 27.27 46.7601 27.27Z" fill="white"/>
<path d="M57.3701 32.21H53.9801V28.79H57.3701V32.21ZM58.1201 27.27H53.2301C52.8201 27.27 52.4801 27.61 52.4801 28.03V32.97C52.4801 33.17 52.5601 33.37 52.7001 33.51C52.8401 33.65 53.0301 33.73 53.2301 33.73H58.1201C58.3201 33.73 58.5101 33.65 58.6501 33.51C58.7901 33.37 58.8701 33.17 58.8701 32.97V28.03C58.8701 27.83 58.7901 27.64 58.6501 27.49C58.5101 27.35 58.3201 27.27 58.1201 27.27Z" fill="white"/>
<path d="M34.65 42.4197H31.27V39.0098H34.66V42.4197H34.65ZM35.4 37.4897H30.51C30.1 37.4897 29.76 37.8297 29.76 38.2497V43.1797C29.76 43.5997 30.1 43.9398 30.51 43.9398H35.4C35.6 43.9398 35.79 43.8597 35.93 43.7197C36.07 43.5797 36.15 43.3897 36.15 43.1797V38.2497C36.15 38.0497 36.07 37.8497 35.93 37.7097C35.78 37.5697 35.6 37.4897 35.4 37.4897Z" fill="white"/>
<path d="M46.0101 42.4197H42.6301V39.0098H46.0101V42.4197ZM46.7601 37.4897H41.8701C41.4601 37.4897 41.1201 37.8297 41.1201 38.2497V43.1797C41.1201 43.5997 41.4601 43.9398 41.8701 43.9398H46.7601C46.9601 43.9398 47.1501 43.8597 47.2901 43.7197C47.4301 43.5797 47.5101 43.3897 47.5101 43.1797V38.2497C47.5101 38.0497 47.4301 37.8497 47.2901 37.7097C47.1501 37.5697 46.9501 37.4897 46.7601 37.4897Z" fill="white"/>
<path d="M57.3701 42.4197H53.9801V39.0098H57.3701V42.4197ZM58.1201 37.4897H53.2301C52.8201 37.4897 52.4801 37.8297 52.4801 38.2497V43.1797C52.4801 43.5997 52.8201 43.9398 53.2301 43.9398H58.1201C58.3201 43.9398 58.5101 43.8597 58.6501 43.7197C58.7901 43.5797 58.8701 43.3897 58.8701 43.1797V38.2497C58.8701 38.0497 58.7901 37.8497 58.6501 37.7097C58.5101 37.5697 58.3201 37.4897 58.1201 37.4897Z" fill="white"/>
<path d="M34.65 52.6H31.27V49.19H34.66V52.6H34.65ZM35.4 47.71H30.51C30.1 47.71 29.76 48.05 29.76 48.47V53.36C29.76 53.56 29.84 53.75 29.98 53.9C30.12 54.04 30.31 54.12 30.51 54.12H35.4C35.6 54.12 35.79 54.04 35.93 53.9C36.07 53.76 36.15 53.57 36.15 53.36V48.47C36.15 48.27 36.07 48.08 35.93 47.93C35.79 47.78 35.6 47.71 35.4 47.71Z" fill="white"/>
<path d="M46.0101 52.6H42.6301V49.19H46.0101V52.6ZM46.7601 47.71H41.8701C41.4601 47.71 41.1201 48.05 41.1201 48.47V53.36C41.1201 53.56 41.2001 53.76 41.3401 53.9C41.4801 54.04 41.6701 54.12 41.8701 54.12H46.7601C46.9601 54.12 47.1501 54.04 47.2901 53.9C47.4301 53.76 47.5101 53.57 47.5101 53.36V48.47C47.5101 48.27 47.4301 48.08 47.2901 47.93C47.1501 47.79 46.9501 47.71 46.7601 47.71Z" fill="white"/>
<path d="M57.3701 52.6H53.9801V49.19H57.3701V52.6ZM58.1201 47.71H53.2301C52.8201 47.71 52.4801 48.05 52.4801 48.47V53.36C52.4801 53.57 52.5601 53.75 52.7001 53.9C52.8401 54.04 53.0301 54.12 53.2301 54.12H58.1201C58.3201 54.12 58.5101 54.04 58.6501 53.9C58.7901 53.76 58.8701 53.57 58.8701 53.36V48.47C58.8701 48.27 58.7901 48.08 58.6501 47.93C58.5101 47.79 58.3201 47.71 58.1201 47.71Z" fill="white"/>
<path d="M34.65 62.8999H31.27V59.4799H34.66V62.8999H34.65ZM35.4 57.9199H30.51C30.1 57.9199 29.76 58.2599 29.76 58.6799V63.6599C29.76 63.8599 29.84 64.0499 29.98 64.1999C30.12 64.3399 30.31 64.4199 30.51 64.4199H35.4C35.6 64.4199 35.79 64.3399 35.93 64.1999C36.07 64.0599 36.15 63.8699 36.15 63.6599V58.6799C36.15 58.4799 36.07 58.2799 35.93 58.1399C35.79 57.9999 35.6 57.9199 35.4 57.9199Z" fill="white"/>
<path d="M46.0101 62.8999H42.6301V59.4799H46.0101V62.8999ZM46.7601 57.9199H41.8701C41.4601 57.9199 41.1201 58.2599 41.1201 58.6799V63.6599C41.1201 63.8599 41.2001 64.0599 41.3401 64.1999C41.4801 64.3399 41.6701 64.4199 41.8701 64.4199H46.7601C46.9601 64.4199 47.1501 64.3399 47.2901 64.1999C47.4301 64.0599 47.5101 63.8699 47.5101 63.6599V58.6799C47.5101 58.4799 47.4301 58.2899 47.2901 58.1399C47.1501 57.9999 46.9501 57.9199 46.7601 57.9199Z" fill="white"/>
<path d="M57.3701 62.8999H53.9801V59.4799H57.3701V62.8999ZM58.1201 57.9199H53.2301C52.8201 57.9199 52.4801 58.2599 52.4801 58.6799V63.6599C52.4801 63.8599 52.5601 64.0499 52.7001 64.1999C52.8401 64.3399 53.0301 64.4199 53.2301 64.4199H58.1201C58.3201 64.4199 58.5101 64.3399 58.6501 64.1999C58.7901 64.0599 58.8701 63.8699 58.8701 63.6599V58.6799C58.8701 58.4799 58.7901 58.2799 58.6501 58.1399C58.5101 57.9999 58.3201 57.9199 58.1201 57.9199Z" fill="white"/>
</svg>
