<svg width="12" height="12" viewBox="0 0 12 12" fill="none" xmlns="http://www.w3.org/2000/svg">
<path d="M10.7901 1.41989C10.4501 1.07989 9.98005 0.879883 9.49005 0.879883H2.16006C1.67006 0.879883 1.21005 1.06989 0.860046 1.41989C0.510046 1.76989 0.320068 2.22988 0.320068 2.71988V10.0499C0.320068 10.5399 0.510046 10.9999 0.860046 11.3499C1.21005 11.6999 1.67006 11.8899 2.16006 11.8899H9.49005C9.98005 11.8899 10.4401 11.6999 10.7901 11.3499C11.1301 11.0099 11.33 10.5399 11.33 10.0499V2.71988C11.32 2.22988 11.1301 1.75989 10.7901 1.41989ZM2.16006 1.79987H9.49005C9.73005 1.79987 9.97008 1.89989 10.1401 2.06989C10.2801 2.20989 10.3601 2.39987 10.3801 2.58987L5.78006 5.26987L1.26007 2.59988C1.29007 2.39988 1.36006 2.20989 1.50006 2.06989C1.68006 1.88989 1.91006 1.79987 2.16006 1.79987ZM10.1401 10.6899C9.97008 10.8599 9.73005 10.9599 9.49005 10.9599H2.16006C1.92006 10.9599 1.68007 10.8599 1.51007 10.6899C1.34007 10.5199 1.24005 10.2899 1.24005 10.0399V3.35986L5.78006 6.03989L10.4101 3.34988V10.0399C10.4101 10.2899 10.3101 10.5199 10.1401 10.6899Z" fill="white"/>
<path d="M4.15005 8.52002H3.25006C3.00006 8.52002 2.80005 8.72003 2.80005 8.97003C2.80005 9.22003 3.00006 9.42004 3.25006 9.42004H4.15005C4.40005 9.42004 4.60007 9.22003 4.60007 8.97003C4.60007 8.72003 4.40005 8.52002 4.15005 8.52002Z" fill="white"/>
</svg>
