<svg width="196" height="43" viewBox="0 0 196 43" fill="none" xmlns="http://www.w3.org/2000/svg">
<path d="M118.63 0.629883C121.76 0.959883 124.16 3.20988 124.35 6.03988C124.26 6.23988 124.31 6.45988 124.31 6.65988C124.31 13.0599 124.31 19.4499 124.31 25.8499C124.31 26.2399 124.28 26.6399 124.5 26.9999C124.7 27.7499 125.13 28.3199 125.78 28.7399C125.94 28.9399 125.93 29.1199 125.74 29.3199C125.25 29.8299 124.62 30.1499 124.03 30.5199C122.1 31.2699 119.32 30.5499 118.39 27.8499C118.3 27.5799 118.24 27.2999 118.17 27.0299C117.89 19.1299 118.12 11.2199 118.05 3.31988C118.04 2.64988 118.11 1.98988 118.04 1.31988C118 0.879881 118.2 0.669883 118.63 0.629883Z" fill="#141314"/>
<path d="M134.67 12.9098C135.61 12.7098 136.57 12.7598 137.54 12.7198C136.86 13.0998 136.2 13.4698 135.68 14.0398C134.78 15.0298 134.29 16.2098 134.03 17.5098C134 17.6398 133.96 17.7598 133.92 17.8898C133.7 18.3898 133.74 18.9298 133.74 19.4498C133.73 22.8798 133.73 26.3198 133.73 29.7498C133.73 30.5398 133.69 30.5698 132.87 30.4298C132.79 30.4198 132.72 30.4298 132.64 30.4598C132.23 30.3498 131.81 30.2398 131.4 30.1298C130.76 29.9098 130.16 29.6098 129.64 29.1598C129.16 28.8498 128.82 28.4198 128.52 27.9498C128.18 27.4098 127.76 26.8898 127.8 26.1898C127.55 17.9798 127.76 9.76977 127.69 1.54977C127.68 0.599774 127.81 0.519775 128.71 0.769775C129.17 0.889775 129.61 1.07977 130.09 1.11977C130.13 1.12977 130.17 1.13978 130.21 1.14978C130.29 1.26978 130.39 1.35978 130.56 1.32978C131.61 1.81978 132.45 2.52978 132.99 3.57978C133.03 3.77978 133.13 3.94977 133.16 4.15977C133.22 4.55977 133.51 4.86978 133.7 5.21978H133.69C133.87 6.72978 133.75 8.23978 133.77 9.73978C133.78 10.5998 133.8 11.4598 133.78 12.3098C133.76 13.0998 133.89 13.1898 134.68 12.9798C134.69 12.9798 134.71 12.9498 134.7 12.9498C134.7 12.9398 134.68 12.9298 134.67 12.9098Z" fill="#141314"/>
<path d="M156.15 39.5297C156.09 39.3097 156.39 39.3097 156.4 39.1297C156.82 38.3197 157.04 37.4297 157.53 36.6597C157.97 35.9297 157.98 35.0997 158.06 34.2897C158.51 29.5497 158.21 24.7997 158.3 20.0597C158.3 19.8697 158.32 19.6797 158.33 19.4897C158.21 18.7197 158.53 18.0397 158.83 17.3797C159.28 16.3997 159.82 15.4597 160.65 14.7397C161.27 14.2297 162.04 13.9697 162.65 13.4497C162.87 13.2597 163.15 13.1597 163.43 13.0997C163.63 13.0497 163.78 12.9797 163.89 12.7997C164.03 12.7497 164.13 12.8097 164.22 12.9097C164.46 13.0997 164.55 13.3497 164.57 13.6597C164.58 13.9097 164.59 14.1597 164.59 14.3997C164.59 19.4797 164.59 24.5597 164.59 29.6397C164.59 31.1097 164.65 32.5797 164.37 34.0297C164.24 35.2197 163.78 36.3097 163.22 37.3497C162.71 38.2997 162.05 39.1397 161.24 39.8497C160.13 40.8197 158.87 41.5497 157.46 42.0297C156.44 42.3797 155.39 42.4797 154.33 42.6297C153.83 42.6997 153.34 42.5597 152.85 42.6497C152.7 42.6797 152.53 42.5797 152.49 42.4197C152.46 42.2497 152.63 42.2197 152.75 42.1697C153.21 41.9797 153.64 41.7397 154.07 41.4897C155.04 41.1097 155.69 40.4197 156.15 39.5297Z" fill="#141314"/>
<path d="M95.4399 15.7601C94.6299 15.0101 93.6799 14.6201 92.5599 14.6301C92.3399 14.6301 92.0199 14.7601 91.9299 14.5501C91.8299 14.3101 92.1499 14.1601 92.2899 13.9701C92.3499 13.8901 92.4099 13.8201 92.4699 13.7501C93.0999 13.0501 93.9099 12.6401 94.7999 12.3901C96.7899 11.8201 98.6699 12.0901 100.4 13.2401C100.95 13.8101 101.55 14.3301 102.16 14.8301C103.07 16.0001 103.52 17.3301 103.53 18.8001C103.54 21.1701 103.52 23.5301 103.54 25.9001C103.55 26.6501 103.77 27.3601 104.19 28.0001C104.4 28.3201 104.68 28.5701 105.06 28.7101C105.58 28.9001 105.61 29.0301 105.26 29.4701C105.2 29.5401 105.14 29.6101 105.06 29.6801C104.45 30.3501 103.71 30.7201 102.79 30.7101C102.5 30.6001 102.2 30.7001 101.91 30.6601C101.35 30.4301 100.71 30.5501 100.15 30.2301C99.7699 30.0101 99.3699 29.8301 99.0899 29.4901C98.9699 29.3501 98.7999 29.3101 98.6399 29.2601L98.6599 29.2301L98.6499 29.2601C98.6399 29.1101 98.4699 29.0201 98.4999 28.8601C98.6199 28.6801 98.3699 28.8401 98.3899 28.7501C97.7199 27.8401 97.4899 26.7901 97.4099 25.6801C97.2699 23.7601 97.3399 21.8401 97.2899 19.9201C97.2799 19.4001 97.3099 18.8201 96.9499 18.3601C96.8499 18.2501 96.8299 18.1301 96.8499 17.9901C96.7899 17.2301 96.4299 16.5901 95.9399 16.0201C95.8099 15.8801 95.6799 15.7001 95.4399 15.7601Z" fill="#141314"/>
<path d="M184.14 29.5597C184.07 29.6097 184.01 29.6697 183.94 29.7197C183.61 29.7197 183.55 30.1197 183.27 30.1797C181.85 30.9297 179.36 30.8197 178.25 29.6297C177.7 29.0297 177.11 28.3797 176.73 27.6197C176.39 26.9597 176.4 26.2097 176.37 25.4997C176.29 23.6397 176.27 21.7697 176.23 19.8997C176.2 18.5297 175.86 17.2297 175.01 16.1097C174.3 15.3697 173.47 14.8297 172.44 14.6597H172.45C172.22 14.4897 171.94 14.5597 171.68 14.5197C171.41 14.4797 171.18 14.3997 171.27 14.0497C171.6 13.9497 171.77 13.6397 172.03 13.4497C173.45 12.2797 175.13 12.1497 176.85 12.3597C178.18 12.5197 179.37 13.1297 180.29 14.1097C180.97 14.8297 181.62 15.5997 181.93 16.5797C182.19 17.3597 182.38 18.1497 182.38 18.9797C182.37 21.2497 182.36 23.5297 182.39 25.7997C182.4 26.6197 182.49 27.4397 183.1 28.0897C183.52 28.4397 183.96 28.7497 184.49 28.8997V28.8897C184.54 29.1997 184.36 29.3897 184.14 29.5597Z" fill="#141314"/>
<path d="M145.59 28.0899C145.97 28.8099 146.58 29.3299 147.17 29.8599C145.72 31.1099 142.2 30.8399 140.54 29.3599C139.04 28.0099 138.47 26.2599 138.43 24.2999C138.4 22.6799 138.47 21.0499 138.41 19.4199C138.37 18.3099 138.06 17.2399 137.3 16.3699C137.23 16.2699 137.16 16.1599 137.08 16.0599C137.02 15.7999 136.79 15.6699 136.63 15.4799C136.49 15.3399 136.36 15.1899 136.18 15.0999C135.86 14.9099 135.7 14.7199 136.19 14.5299C136.43 14.4399 136.66 14.3099 136.89 14.1999C138.3 13.6699 139.68 13.7699 141.05 14.3399C142.46 14.9299 143.55 15.8799 144.2 17.2599C144.49 17.8799 144.64 18.5399 144.63 19.2499C144.6 20.8499 144.63 22.4599 144.62 24.0699C144.61 25.3499 144.79 26.5799 145.45 27.6999C145.52 27.8399 145.53 27.9799 145.59 28.0899Z" fill="#141314"/>
<path d="M91.0801 30.3698C89.9801 29.9998 89.1401 29.2898 88.5601 28.3198C87.3301 26.2798 87.2501 23.1098 88.9301 21.0398C90.7001 18.8598 93.8201 18.4998 95.9201 20.2498C96.0001 20.3598 96.1201 20.4198 96.2001 20.5298C96.3601 20.7598 96.3801 20.9498 96.0801 21.0698C94.6501 21.6798 94.1501 22.8698 94.0601 24.3098C94.0501 24.3698 94.0301 24.4198 94.0101 24.4698C93.9701 24.5498 93.9001 24.6298 93.9001 24.7298C93.9401 25.9098 94.1201 27.0398 94.9501 27.9698C95.0401 28.0698 95.1501 28.1498 95.2701 28.1998C95.6201 28.4298 96.0101 28.5898 96.3901 28.7498C96.6901 28.8698 96.7401 29.0298 96.4901 29.2398C95.8501 29.7798 95.2101 30.3198 94.3401 30.4598C93.2401 30.6998 92.1601 30.7798 91.0801 30.3698Z" fill="#141314"/>
<path d="M187.49 39.3398C186.94 40.1198 186.32 40.4098 185.53 40.3798C184.44 40.3398 183.77 39.7398 183.73 38.6398C183.68 37.3798 183.72 36.1198 183.7 34.8598C183.69 34.4698 183.91 34.4898 184.17 34.4898C184.44 34.4898 184.64 34.4898 184.63 34.8698C184.61 35.9598 184.62 37.0498 184.62 38.1398C184.62 39.0298 184.9 39.4498 185.56 39.5398C186.38 39.6598 187.11 39.1998 187.32 38.4198C187.43 38.0098 187.41 37.5898 187.41 37.1698C187.41 36.4098 187.43 35.6398 187.4 34.8798C187.38 34.4498 187.64 34.5098 187.91 34.4898C188.21 34.4798 188.36 34.5398 188.36 34.8898C188.34 36.5298 188.34 38.1798 188.36 39.8198C188.37 40.1998 188.22 40.2598 187.89 40.2598C187.58 40.2598 187.42 40.1798 187.47 39.8498C187.5 39.7298 187.49 39.6198 187.49 39.3398Z" fill="#141314"/>
<path d="M174.62 35.42C175.07 34.87 175.54 34.44 176.26 34.37C176.47 34.35 176.73 34.3 176.68 34.63C176.64 34.89 176.9 35.26 176.42 35.38C175.03 35.74 174.66 36.22 174.66 37.66C174.66 38.38 174.63 39.11 174.67 39.83C174.69 40.23 174.49 40.24 174.19 40.25C173.86 40.26 173.72 40.18 173.73 39.81C173.75 38.17 173.75 36.53 173.73 34.89C173.73 34.55 173.85 34.47 174.16 34.48C174.48 34.48 174.69 34.52 174.63 34.91C174.6 35.08 174.62 35.25 174.62 35.42Z" fill="#141314"/>
<path d="M170.92 38.7101C170.63 39.2401 170.18 39.4501 169.6 39.4601C169.04 39.4701 168.6 39.2501 168.35 38.7301C167.94 37.8801 167.88 37.0101 168.24 36.1301C168.5 35.5101 168.99 35.1901 169.67 35.1901C170.33 35.1901 170.79 35.5001 171.05 36.1101C171.22 36.4901 171.21 36.8901 171.27 37.2301C171.22 37.7701 171.17 38.2601 170.92 38.7101ZM172.19 35.0401C172.2 34.5101 172.02 34.3801 171.5 34.4901C171.09 34.5801 171.47 34.9801 171.23 35.1201C170.28 33.8501 168 34.1801 167.37 35.7701C166.97 36.7901 166.89 37.8101 167.33 38.8301C168.06 40.5301 170.08 40.8401 171.28 39.3501C171.28 39.7001 171.31 39.9701 171.27 40.2201C171.16 40.9501 170.9 41.6101 170.06 41.7701C169.3 41.9201 168.63 41.8101 168.2 41.0401C168.03 40.7301 167.66 40.8601 167.42 40.9301C167.12 41.0201 167.34 41.2901 167.4 41.4601C167.47 41.6501 167.59 41.8501 167.74 41.9701C168.63 42.6901 169.65 42.7101 170.67 42.4101C171.62 42.1301 172.04 41.3601 172.12 40.4101C172.27 38.6301 172.16 36.8301 172.19 35.0401Z" fill="#141314"/>
<path d="M194.17 38.28C193.97 39.05 193.5 39.48 192.81 39.55C192.02 39.62 191.4 39.27 191.08 38.51C190.76 37.76 190.76 36.98 191.07 36.23C191.38 35.48 191.92 35.15 192.68 35.2C193.41 35.24 193.92 35.67 194.16 36.42C194.27 36.75 194.27 37.1 194.29 37.51C194.26 37.71 194.24 38 194.17 38.28ZM195.13 36.27C194.61 34.32 192.5 33.69 190.83 35.16C191.05 34.47 190.7 34.48 190.31 34.48C189.79 34.48 189.98 34.86 189.98 35.09C189.97 37.36 189.98 39.64 189.97 41.91C189.97 42.26 189.99 42.46 190.44 42.47C190.93 42.48 190.89 42.21 190.89 41.89C190.88 41.14 190.89 40.4 190.89 39.56C192.43 41.04 194.85 40.43 195.21 38.14C195.32 37.5 195.3 36.89 195.13 36.27Z" fill="#141314"/>
<path d="M181.32 38.2501C181.14 38.9601 180.54 39.4801 179.88 39.5401C179.17 39.6101 178.5 39.2301 178.19 38.5101C177.86 37.7401 177.87 36.9401 178.2 36.1801C178.5 35.4901 179.14 35.1301 179.85 35.1801C180.53 35.2301 181.11 35.7201 181.31 36.4401C181.39 36.7301 181.41 37.0401 181.46 37.3401C181.41 37.6501 181.4 37.9601 181.32 38.2501ZM178.74 34.5001C177.66 34.8401 176.94 36.0301 176.97 37.4201C177.01 38.7801 177.67 39.8601 178.69 40.2101C180.71 40.9001 182.44 39.6001 182.44 37.3901C182.45 35.1301 180.8 33.8501 178.74 34.5001Z" fill="#141314"/>
<path d="M115.08 17.0897C114.81 17.4397 114.41 17.6597 114.23 18.0797C113.57 18.8297 113.22 19.7397 113.07 20.7097C112.79 22.5397 112.94 24.3197 113.91 25.9597C114.39 26.7697 115.1 27.3397 115.88 27.8297C116.42 28.2397 117.09 28.3097 117.73 28.5497C117.63 28.9297 117.26 29.0897 117.04 29.3697C114.83 31.2797 110.22 31.5997 107.91 28.0497C105.55 24.4397 105.44 20.7597 107.65 17.1097C109.01 14.8697 111.07 13.6597 113.8 13.9597C114.61 14.0497 115.34 14.3597 115.99 14.8597C116.2 15.0497 116.43 15.2197 116.66 15.3897C117.2 15.8097 117.17 15.9797 116.54 16.2097C116 16.4197 115.5 16.6797 115.08 17.0897Z" fill="#141314"/>
<path d="M173.69 27.6298C174.1 28.3798 174.82 28.6698 175.67 28.9498C175.06 29.4998 174.48 29.9998 173.74 30.2698C172.55 30.7498 171.35 30.7798 170.13 30.3898C168.02 29.5798 167 27.9698 166.72 25.7898C166.55 24.4298 166.76 23.1398 167.31 21.8898C168.16 20.5198 169.3 19.5598 170.92 19.2298C172.59 18.8898 174.49 19.5498 175.61 20.9198C174.13 21.3798 173.29 22.4198 173.05 23.8998C172.86 25.1998 172.86 26.4898 173.69 27.6298Z" fill="#141314"/>
<path d="M147.93 25.65C147.46 23.61 147.47 21.57 147.9 19.53C147.94 19.35 148.03 19.18 148.09 19C148.43 18.34 148.75 17.68 149.14 17.05C149.95 15.97 150.91 15.06 152.13 14.45C152.4 14.31 152.68 14.19 152.98 14.1C153.45 13.96 153.5 14.01 153.53 14.49C153.6 15.84 153.58 17.2 153.57 18.55C153.56 20.11 153.54 21.68 153.55 23.24C153.56 24.73 153.72 26.25 154.47 27.61C154.59 27.82 154.67 28.07 154.92 28.18C155.26 28.49 155.6 28.79 155.94 29.1C156.3 29.34 156.68 29.54 157.1 29.66C157.37 29.81 157.69 29.96 157.15 30.2C155.49 31.04 153.89 30.72 152.3 29.96C151.49 29.57 150.79 29.03 150.05 28.55C149.05 27.8 148.44 26.76 147.93 25.65Z" fill="#141314"/>
<path d="M74.14 28.7698L74.15 19.3098C74.15 18.8698 74.26 18.5298 74.5 18.2898C74.73 18.0498 75.06 17.9298 75.48 17.9298C75.64 17.9298 75.77 17.9398 75.88 17.9698C75.99 17.9998 76.07 18.0298 76.15 18.0498L76.44 17.1898C76.34 17.1498 76.21 17.1098 76.04 17.0698C75.87 17.0298 75.66 17.0098 75.4 17.0098C75.02 17.0098 74.66 17.0898 74.32 17.2498C73.98 17.4098 73.7 17.6498 73.5 17.9598C73.29 18.2698 73.18 18.6498 73.18 19.1098V28.7698H74.14ZM71.87 21.1998H76.01V20.3498H71.87V21.1998ZM65.52 27.5798C65.12 27.2698 64.81 26.8498 64.6 26.3198C64.39 25.7998 64.29 25.2198 64.29 24.5898C64.29 23.9598 64.39 23.3798 64.6 22.8598C64.81 22.3298 65.12 21.9098 65.53 21.5898C65.94 21.2698 66.43 21.1098 67.01 21.1098C67.59 21.1098 68.09 21.2698 68.5 21.5898C68.91 21.9098 69.21 22.3298 69.42 22.8598C69.63 23.3898 69.73 23.9598 69.73 24.5898C69.73 25.2198 69.63 25.7898 69.42 26.3198C69.21 26.8398 68.9 27.2598 68.5 27.5798C68.09 27.8898 67.6 28.0498 67.01 28.0498C66.42 28.0498 65.93 27.8898 65.52 27.5798ZM68.93 28.3898C69.49 28.0198 69.92 27.5098 70.24 26.8598C70.56 26.2098 70.71 25.4498 70.71 24.5998C70.71 23.7398 70.55 22.9798 70.23 22.3198C69.91 21.6698 69.48 21.1498 68.92 20.7798C68.37 20.4098 67.72 20.2298 67 20.2298C66.27 20.2298 65.63 20.4098 65.07 20.7798C64.51 21.1498 64.08 21.6598 63.76 22.3198C63.44 22.9798 63.29 23.7398 63.29 24.5998C63.29 25.4598 63.45 26.2098 63.76 26.8598C64.07 27.5098 64.51 28.0198 65.07 28.3898C65.63 28.7598 66.27 28.9398 67 28.9398C67.73 28.9398 68.38 28.7598 68.93 28.3898ZM54.86 28.7698V23.3298C54.86 22.9098 54.96 22.5398 55.16 22.2198C55.36 21.8898 55.63 21.6398 55.97 21.4598C56.31 21.2798 56.7 21.1798 57.14 21.1798C57.27 21.1798 57.39 21.1898 57.5 21.1998C57.61 21.2098 57.69 21.2298 57.73 21.2298V20.2398C57.66 20.2398 57.58 20.2298 57.48 20.2298C57.38 20.2298 57.29 20.2198 57.21 20.2198C56.68 20.2198 56.2 20.3498 55.79 20.6098C55.37 20.8698 55.08 21.2098 54.91 21.6398H54.84V20.3498H53.89V28.7698H54.86ZM49.85 28.6698C50.28 28.4898 50.64 28.2498 50.94 27.9498C51.24 27.6498 51.44 27.3198 51.57 26.9698L50.64 26.6698C50.53 26.9198 50.38 27.1498 50.17 27.3598C49.96 27.5698 49.71 27.7398 49.41 27.8598C49.11 27.9798 48.76 28.0498 48.36 28.0498C47.77 28.0498 47.27 27.9098 46.84 27.6398C46.41 27.3698 46.08 26.9798 45.85 26.4798C45.62 25.9798 45.5 25.3998 45.5 24.7298V24.2198C45.5 23.6598 45.62 23.1498 45.85 22.6798C46.08 22.2098 46.39 21.8398 46.8 21.5498C47.21 21.2698 47.68 21.1198 48.21 21.1198C48.71 21.1198 49.16 21.2498 49.54 21.4998C49.93 21.7498 50.23 22.0898 50.44 22.5298C50.66 22.9598 50.77 23.4498 50.77 23.9898H45.19V24.8498H51.77V24.3698C51.77 23.6598 51.67 23.0498 51.47 22.5398C51.27 22.0198 51.01 21.5898 50.67 21.2498C50.33 20.9098 49.95 20.6498 49.53 20.4898C49.11 20.3198 48.67 20.2398 48.21 20.2398C47.48 20.2398 46.84 20.4298 46.29 20.7998C45.74 21.1798 45.3 21.6898 44.99 22.3498C44.68 23.0098 44.52 23.7598 44.52 24.6098C44.52 25.4598 44.68 26.2098 44.99 26.8698C45.3 27.5198 45.75 28.0298 46.32 28.3998C46.89 28.7698 47.57 28.9498 48.36 28.9498C48.92 28.9398 49.42 28.8498 49.85 28.6698ZM36.93 22.7798C37.13 22.2598 37.42 21.8598 37.81 21.5598C38.19 21.2698 38.66 21.1198 39.2 21.1198C39.76 21.1198 40.24 21.2698 40.63 21.5798C41.02 21.8898 41.31 22.2998 41.51 22.8198C41.71 23.3398 41.81 23.9198 41.81 24.5698C41.81 25.2198 41.71 25.8198 41.51 26.3398C41.31 26.8698 41.01 27.2798 40.63 27.5898C40.24 27.8998 39.77 28.0498 39.21 28.0498C38.67 28.0498 38.2 27.8998 37.82 27.5998C37.44 27.2998 37.15 26.8898 36.94 26.3698C36.74 25.8398 36.63 25.2398 36.63 24.5598C36.63 23.8898 36.73 23.2998 36.93 22.7798ZM36.61 28.7698V27.2098H36.73C36.84 27.4698 37 27.7298 37.21 27.9998C37.42 28.2698 37.69 28.4998 38.04 28.6798C38.38 28.8598 38.81 28.9498 39.32 28.9498C40.01 28.9498 40.61 28.7698 41.13 28.3998C41.65 28.0398 42.06 27.5198 42.35 26.8698C42.64 26.2198 42.79 25.4498 42.79 24.5798C42.79 23.7098 42.64 22.9498 42.35 22.2998C42.06 21.6498 41.65 21.1398 41.13 20.7798C40.61 20.4198 40 20.2298 39.31 20.2298C38.79 20.2298 38.37 20.3198 38.03 20.4998C37.69 20.6798 37.42 20.9098 37.21 21.1698C37 21.4398 36.85 21.6998 36.74 21.9498H36.65V17.5398H35.67V28.7698H36.61ZM23.33 28.7698V23.3698C23.33 22.9298 23.42 22.5398 23.6 22.1998C23.78 21.8598 24.02 21.5998 24.33 21.4098C24.64 21.2198 24.99 21.1298 25.37 21.1298C25.95 21.1298 26.4 21.2998 26.71 21.6598C27.03 22.0098 27.19 22.4698 27.19 23.0398V28.7698H28.19V23.2298C28.19 22.6198 28.36 22.1198 28.71 21.7298C29.06 21.3298 29.55 21.1398 30.2 21.1398C30.76 21.1398 31.2 21.3098 31.54 21.6398C31.88 21.9698 32.05 22.4698 32.05 23.1398V28.7798H33.03V23.1398C33.03 22.1998 32.8 21.4798 32.35 20.9898C31.9 20.4998 31.28 20.2498 30.5 20.2498C29.89 20.2498 29.36 20.3898 28.93 20.6598C28.5 20.9398 28.19 21.3098 28 21.7798H27.93C27.74 21.3098 27.46 20.9298 27.09 20.6598C26.71 20.3898 26.24 20.2498 25.66 20.2498C25.11 20.2498 24.63 20.3698 24.24 20.6298C23.85 20.8798 23.57 21.2198 23.4 21.6598H23.31V20.3698H22.36V28.7898H23.33V28.7698ZM18.33 28.6698C18.76 28.4898 19.13 28.2498 19.42 27.9498C19.71 27.6498 19.92 27.3198 20.05 26.9698L19.12 26.6698C19.01 26.9198 18.86 27.1498 18.65 27.3598C18.44 27.5698 18.19 27.7398 17.89 27.8598C17.59 27.9798 17.24 28.0498 16.84 28.0498C16.25 28.0498 15.75 27.9098 15.32 27.6398C14.89 27.3698 14.56 26.9798 14.33 26.4798C14.1 25.9798 13.98 25.3998 13.98 24.7298V24.2198C13.98 23.6598 14.1 23.1498 14.33 22.6798C14.56 22.2098 14.88 21.8398 15.28 21.5498C15.69 21.2698 16.16 21.1198 16.69 21.1198C17.19 21.1198 17.64 21.2498 18.02 21.4998C18.41 21.7498 18.71 22.0898 18.92 22.5298C19.14 22.9598 19.25 23.4498 19.25 23.9898H13.67V24.8498H20.25V24.3698C20.25 23.6598 20.15 23.0498 19.95 22.5398C19.75 22.0198 19.49 21.5898 19.15 21.2498C18.81 20.9098 18.43 20.6498 18.01 20.4898C17.58 20.3198 17.15 20.2398 16.69 20.2398C15.96 20.2398 15.32 20.4298 14.77 20.7998C14.22 21.1798 13.78 21.6898 13.47 22.3498C13.16 23.0098 13 23.7598 13 24.6098C13 25.4598 13.16 26.2098 13.47 26.8698C13.78 27.5198 14.23 28.0298 14.8 28.3998C15.37 28.7698 16.05 28.9498 16.84 28.9498C17.4 28.9398 17.89 28.8498 18.33 28.6698ZM0.0200195 28.7698H0.990021V19.6998H1.08002L4.87003 28.7698H5.80003L9.59002 19.6998H9.68002V28.7698H10.65V17.5398H9.47002L5.40002 27.3198H5.30003L1.23003 17.5398H0.0500259V28.7698H0.0200195Z" fill="#141314"/>
</svg>
