<svg width="25" height="25" viewBox="0 0 25 25" fill="none" xmlns="http://www.w3.org/2000/svg">
<path d="M19.99 15.1597C19.99 17.5097 18.08 19.4197 15.73 19.4197H10.06C7.71003 19.4197 5.80002 17.5097 5.80002 15.1597V9.48973C5.80002 7.13973 7.71003 5.22972 10.06 5.22972H15.73C18.08 5.22972 19.99 7.13973 19.99 9.48973V15.1597ZM22.01 3.19972C20.03 1.21972 16.46 0.219727 12.89 0.219727C9.32005 0.219727 5.74002 1.21972 3.77002 3.19972C1.79002 5.17972 0.790039 8.74973 0.790039 12.3197C0.790039 15.8897 1.79002 19.4697 3.77002 21.4397C5.75002 23.4197 9.32005 24.4197 12.89 24.4197C16.46 24.4197 20.04 23.4197 22.01 21.4397C23.99 19.4597 24.99 15.8897 24.99 12.3197C25 8.74973 23.99 5.17972 22.01 3.19972ZM16.65 9.42972C16.19 9.42972 15.82 9.05973 15.82 8.59973C15.82 8.13973 16.19 7.76973 16.65 7.76973C17.11 7.76973 17.48 8.13973 17.48 8.59973C17.48 9.05973 17.11 9.42972 16.65 9.42972ZM12.95 15.8197C11.02 15.8197 9.45004 14.2497 9.45004 12.3197C9.45004 10.3897 11.02 8.82973 12.95 8.82973C14.88 8.82973 16.44 10.3997 16.44 12.3197C16.44 14.2497 14.87 15.8197 12.95 15.8197ZM15.72 6.56973H10.05C8.43002 6.56973 7.12003 7.87973 7.12003 9.49973V15.1697C7.12003 16.7797 8.43002 18.0997 10.05 18.0997H15.72C17.33 18.0997 18.65 16.7897 18.65 15.1697V9.49973C18.65 7.87973 17.34 6.56973 15.72 6.56973ZM12.95 10.0897C11.71 10.0897 10.71 11.0897 10.71 12.3297C10.71 13.5697 11.71 14.5697 12.95 14.5697C14.18 14.5697 15.19 13.5697 15.19 12.3297C15.19 11.0897 14.18 10.0897 12.95 10.0897Z" fill="white"/>
</svg>
