<svg width="138" height="46" viewBox="0 0 138 46" fill="none" xmlns="http://www.w3.org/2000/svg">
<path d="M0 15.5298C0 13.4198 0.480002 11.8798 1.44 10.8298C2.4 9.77976 3.78 9.29976 5.4 9.15976C6.43 9.06976 7.65 9.00977 8.91 9.00977C10.45 9.00977 12.05 9.09976 13.43 9.32976L13.27 10.2898C11.97 10.0698 10.42 9.98976 8.91 9.98976C7.68 9.98976 6.48 10.0498 5.48 10.1398C3.99 10.2698 2.89 10.6898 2.15 11.4998C1.41 12.2998 0.970001 13.5598 0.970001 15.5398C0.970001 17.7198 1.01 25.9498 1.01 25.9598H0.0300064C0.0400064 25.9498 0 17.7098 0 15.5298Z" fill="currentColor"/>
<path d="M17.94 25.2201C16.41 24.2601 15.62 22.5601 15.63 20.0901C15.63 18.0201 15.67 9.41011 15.67 9.41011H16.65C16.65 9.42011 16.61 18.0301 16.61 20.0901C16.62 22.3901 17.27 23.6201 18.47 24.3901C19.68 25.1701 21.61 25.4601 24.17 25.4601C26.72 25.4601 28.57 25.1401 29.69 24.3801C30.81 23.6301 31.37 22.4601 31.38 20.3601V9.37012H32.36V20.3601C32.37 22.6201 31.67 24.2501 30.23 25.2001C28.8 26.1401 26.79 26.4401 24.16 26.4401C21.55 26.4301 19.46 26.1701 17.94 25.2201Z" fill="currentColor"/>
<path d="M37.9099 24.79C36.4199 23.59 35.6799 21.69 35.6799 19.07C35.6799 16.87 35.7199 0 35.7199 0H36.6999C36.6999 0.01 36.6899 4.21999 36.6799 8.70999C36.6699 13.2 36.6599 17.97 36.6599 19.07C36.6699 21.52 37.3199 23.05 38.5199 24.03C39.7299 25.01 41.6099 25.46 44.1399 25.46C46.6899 25.46 48.8599 25.16 50.3099 24.23C51.7499 23.3 52.6199 21.8 52.6299 19.02C52.6299 16.26 52.5499 14.27 52.1099 12.95C51.6599 11.64 50.9799 10.96 49.4599 10.52C48.4499 10.23 47.0699 10.11 45.2499 10.11C43.2499 10.11 41.6499 10.24 40.5499 10.36C39.4499 10.49 38.8699 10.61 38.8699 10.61L38.6699 9.64999C38.6999 9.63999 41.1799 9.12 45.2599 9.12C47.1199 9.12 48.5699 9.23999 49.7299 9.56999C50.8799 9.88999 51.7599 10.44 52.3499 11.25C53.5299 12.89 53.5999 15.31 53.6099 19.01C53.6199 21.99 52.5899 23.95 50.8299 25.05C49.0899 26.15 46.7599 26.43 44.1399 26.43C41.4999 26.43 39.3999 25.99 37.9099 24.79Z" fill="currentColor"/>
<path d="M57.8799 9.24023H56.8999V25.9702H57.8799V9.24023Z" fill="currentColor"/>
<path d="M83.6801 25.85C82.2901 25.38 81.0801 24.43 80.4601 23.02C80.0401 22.09 79.8601 21.03 79.8601 19.81C79.8601 17.91 79.9001 10.04 79.9001 10.04L82.5101 10.05C82.5101 10.06 82.4701 17.93 82.4701 19.81C82.4701 20.77 82.6201 21.46 82.8401 21.95C83.0701 22.44 83.3401 22.75 83.7701 23.03C84.6101 23.59 86.2401 23.88 88.5201 23.87C90.2201 23.87 91.5201 23.71 92.3801 23.39C93.2401 23.05 93.6301 22.69 93.9401 22.03C94.1401 21.58 94.2701 20.94 94.2701 20.07V10.02H96.8801V20.07C96.8801 21.19 96.7201 22.19 96.3401 23.07C95.9601 23.95 95.3301 24.69 94.5501 25.2C92.9801 26.22 90.9901 26.47 88.5301 26.48C86.6701 26.47 85.0701 26.33 83.6801 25.85Z" fill="currentColor"/>
<path d="M64.3299 25.5501C63.4499 25.1701 62.7099 24.5401 62.1999 23.7601C61.1799 22.1801 60.9399 20.2001 60.9199 17.7401C60.9199 15.9001 61.0599 14.3001 61.5399 12.9001C62.0099 11.5101 62.9599 10.3001 64.3699 9.68008C65.2999 9.26008 66.3699 9.08008 67.5799 9.08008C69.4799 9.08008 77.3499 9.12009 77.3499 9.12009L77.3399 11.7301C77.3299 11.7301 69.4599 11.6901 67.5799 11.6901C66.6199 11.6901 65.9299 11.8401 65.4499 12.0601C64.9599 12.2801 64.6499 12.5601 64.3699 12.9901C63.8099 13.8301 63.5199 15.4601 63.5299 17.7401C63.5299 19.4401 63.6899 20.7401 64.0199 21.6001C64.3599 22.4601 64.7199 22.8601 65.3799 23.1601C65.8299 23.3601 66.4699 23.4901 67.3399 23.4901H77.3899V26.1001H67.3399C66.2099 26.0901 65.2099 25.9301 64.3299 25.5501Z" fill="currentColor"/>
<path d="M122.69 25.5498C121.81 25.1698 121.07 24.5398 120.56 23.7598C119.54 22.1798 119.3 20.1998 119.28 17.7398C119.28 15.8998 119.41 14.2998 119.9 12.8998C120.37 11.5098 121.32 10.2998 122.73 9.67981C123.66 9.25981 124.72 9.0798 125.94 9.0798C127.03 9.0798 128.1 9.0498 129.31 9.0498C130.14 9.0498 131.03 9.06981 132.04 9.11981C133.19 9.18981 134.16 9.43981 134.96 9.90981C135.76 10.3698 136.34 11.0498 136.68 11.7698C137.37 13.2198 137.33 14.7398 137.34 16.0498C137.34 16.1198 137.34 16.1798 137.34 16.2598C137.34 16.9998 137.23 17.6698 136.98 18.2798C136.73 18.8798 136.33 19.3998 135.84 19.7698C134.84 20.5098 133.69 20.6698 132.53 20.6898C131.92 20.6998 131.31 20.6998 130.71 20.6998C127.68 20.6998 124.9 20.6098 124.89 20.6098L124.98 17.9998C124.98 17.9998 127.74 18.0898 130.71 18.0898C131.3 18.0898 131.91 18.0898 132.49 18.0798C133.17 18.0698 133.7 17.9798 134.01 17.8298C134.32 17.6798 134.44 17.5698 134.57 17.2698C134.66 17.0598 134.73 16.7398 134.73 16.2598C134.73 16.1998 134.73 16.1298 134.73 16.0498C134.73 15.0798 134.71 14.1698 134.54 13.4998C134.36 12.8198 134.13 12.4598 133.63 12.1598C133.28 11.9598 132.74 11.7798 131.88 11.7298C130.94 11.6798 130.1 11.6598 129.3 11.6598C128.14 11.6598 127.08 11.6898 125.93 11.6998C124.97 11.6998 124.28 11.8498 123.8 12.0698C123.31 12.2898 123 12.5698 122.72 12.9998C122.16 13.8398 121.87 15.4698 121.88 17.7498C121.88 19.4498 122.04 20.7498 122.36 21.6098C122.7 22.4698 123.06 22.8698 123.72 23.1698C124.17 23.3698 124.81 23.4998 125.68 23.4998H135.73V26.1098H125.68C124.57 26.0898 123.57 25.9298 122.69 25.5498Z" fill="currentColor"/>
<path d="M102.17 24.7798C100.55 23.4898 99.7999 21.4198 99.8099 18.8898C99.8099 16.8698 99.8499 0.00976562 99.8499 0.00976562L102.46 0.0197601C102.46 0.0297601 102.45 4.23977 102.44 8.69977C102.43 13.1698 102.42 17.8898 102.42 18.8898C102.42 19.9298 102.56 20.7398 102.8 21.3498C103.04 21.9698 103.36 22.3898 103.8 22.7498C104.66 23.4598 106.17 23.8698 108.4 23.8698C110.1 23.8698 111.57 23.7198 112.64 23.3298C113.71 22.9298 114.36 22.4098 114.82 21.4898C115.12 20.8698 115.31 20.0098 115.31 18.8398C115.31 16.9598 115.27 15.4898 115.09 14.4598C114.91 13.4098 114.63 12.8798 114.26 12.5298C114 12.2898 113.64 12.0798 113.04 11.9098C112.24 11.6798 111.05 11.5598 109.42 11.5498C109.37 11.5498 109.33 11.5498 109.3 11.5498C106.91 11.5498 105.44 11.8698 105.16 11.9298C105.12 11.9398 105.12 11.9398 105.12 11.9398H104.93L104.88 9.41977C104.97 9.39977 106.29 8.93976 109.29 8.93976C109.35 8.93976 109.39 8.93976 109.43 8.93976C111.39 8.94976 112.9 9.08977 114.18 9.52977C115.45 9.94977 116.48 10.8198 117.03 11.9598C117.41 12.7198 117.6 13.5498 117.73 14.4698C117.89 15.7098 117.91 17.1198 117.91 18.8298C117.91 20.2898 117.67 21.5398 117.17 22.5998C116.67 23.6598 115.89 24.4998 114.98 25.0698C113.13 26.2198 110.86 26.4598 108.4 26.4698C105.91 26.4598 103.78 26.0498 102.17 24.7798Z" fill="currentColor"/>
<path d="M83.5201 41.7301C83.5201 43.2401 82.5501 44.2201 81.0401 44.2201C79.5301 44.2201 78.5601 43.2401 78.5601 41.7301V35.8001H77.6801V41.7301C77.6801 43.6901 79.0301 45.0101 81.0401 45.0101C83.0501 45.0101 84.4001 43.6901 84.4001 41.7301V35.8001H83.5201V41.7301V41.7301ZM94.1101 40.4801H91.8301V36.5801H94.1101C95.3201 36.5801 96.0401 37.3101 96.0401 38.5301C96.0401 39.7501 95.3201 40.4801 94.1101 40.4801ZM94.1501 35.7901H90.9501V44.8001H91.8301V41.2601H94.1501C95.8301 41.2601 96.9501 40.1601 96.9501 38.5201C96.9501 36.8901 95.8201 35.7901 94.1501 35.7901ZM70.6301 40.9901C70.6301 42.9801 69.6101 44.2201 67.9601 44.2201C66.3201 44.2201 65.2901 42.9801 65.2901 40.9901V39.6101C65.2901 37.6201 66.3101 36.3801 67.9601 36.3801C69.6101 36.3801 70.6301 37.6201 70.6301 39.6101V40.9901ZM67.9601 35.6001C65.7401 35.6001 64.4201 37.1001 64.4201 39.6101V40.9901C64.4201 43.4701 65.7801 45.0001 67.9601 45.0001C70.1501 45.0001 71.5101 43.4601 71.5101 40.9901V39.6101C71.5101 37.1001 70.1901 35.6001 67.9601 35.6001ZM42.8501 41.0001H45.3001V42.0401C45.3001 43.3801 44.3701 44.2101 42.8901 44.2101C41.2101 44.2101 40.2101 42.9801 40.2101 40.9101V39.6301C40.2101 37.5901 41.2001 36.3801 42.8601 36.3801C44.1601 36.3801 45.0701 37.1401 45.2601 38.3801H46.1401C45.9701 36.7101 44.6801 35.6001 42.8901 35.6001C40.7001 35.6001 39.3401 37.1501 39.3401 39.6401V40.9201C39.3401 43.5201 40.6401 45.0101 42.9201 45.0101C44.9001 45.0101 46.1801 43.8501 46.1801 42.0501V40.2301H42.8601V41.0001H42.8501ZM55.4401 40.3201H53.3301V36.5801H55.4901C56.7801 36.5801 57.5301 37.2801 57.5301 38.4901C57.5301 39.6701 56.7901 40.3201 55.4401 40.3201ZM56.7901 40.8901C57.8301 40.5201 58.4501 39.6001 58.4501 38.4201C58.4501 36.8301 57.3401 35.8001 55.6301 35.8001H52.4501V44.8101H53.3301V41.1101H55.8101L55.8401 41.1701L57.5301 44.8201H58.5501L56.6901 40.9401L56.7901 40.8901Z" fill="currentColor"/>
</svg>
