<svg width="186" height="56" viewBox="0 0 186 56" fill="none" xmlns="http://www.w3.org/2000/svg">
<path d="M0.0200195 21.5903C0.0200195 18.7403 0.660022 16.6603 1.96002 15.2403C3.26002 13.8203 5.12002 13.1803 7.31002 12.9803C8.69002 12.8603 10.34 12.7803 12.05 12.7803C14.13 12.7803 16.29 12.9003 18.15 13.2103L17.93 14.5103C16.18 14.2203 14.08 14.1003 12.05 14.1003C10.39 14.1003 8.77002 14.1803 7.43002 14.3003C5.41002 14.4803 3.93003 15.0503 2.94003 16.1303C1.94003 17.2103 1.35002 18.9103 1.34002 21.5803C1.34002 24.5203 1.40002 35.6303 1.40002 35.6503L0.0800247 35.6603C0.0800247 35.6603 0.0200195 24.5403 0.0200195 21.5903Z" fill="#E6E7E8"/>
<path d="M24.2499 34.67C22.1799 33.37 21.1099 31.08 21.1299 27.75C21.1299 24.95 21.1899 13.32 21.1899 13.32L22.5099 13.33C22.5099 13.34 22.4499 24.97 22.4499 27.75C22.4699 30.85 23.3399 32.51 24.9599 33.56C26.5999 34.61 29.2099 35.01 32.6599 35C36.1099 35.01 38.5899 34.57 40.1199 33.55C41.6299 32.53 42.3899 30.95 42.4099 28.11V13.27H43.7299V28.11C43.7499 31.17 42.7999 33.36 40.8499 34.65C38.9199 35.93 36.1999 36.32 32.6599 36.32C29.1199 36.31 26.2999 35.96 24.2499 34.67Z" fill="#E6E7E8"/>
<path d="M51.21 34.0999C49.2 32.4799 48.19 29.9099 48.2 26.3799C48.2 23.3999 48.26 0.629883 48.26 0.629883H49.58C49.58 0.639883 49.57 6.31988 49.55 12.3899C49.54 18.4599 49.52 24.8999 49.52 26.3799C49.53 29.6899 50.41 31.7599 52.04 33.0699C53.67 34.3899 56.21 34.9999 59.63 34.9999C63.08 34.9999 66 34.5899 67.96 33.3399C69.91 32.0899 71.08 30.0599 71.09 26.2999C71.09 22.5699 70.99 19.8899 70.39 18.1099C69.78 16.3399 68.86 15.4299 66.82 14.8299C65.46 14.4499 63.6 14.2699 61.14 14.2699C58.44 14.2699 56.28 14.4399 54.79 14.6099C53.3 14.7799 52.52 14.9499 52.52 14.9499L52.25 13.6599C52.29 13.6499 55.64 12.9499 61.15 12.9499C63.67 12.9499 65.63 13.1199 67.19 13.5599C68.75 13.9899 69.93 14.7299 70.73 15.8299C72.32 18.0499 72.41 21.3099 72.43 26.3099C72.45 30.3299 71.05 32.9799 68.68 34.4599C66.33 35.9399 63.19 36.3199 59.64 36.3199C56.07 36.3199 53.22 35.7099 51.21 34.0999Z" fill="#E6E7E8"/>
<path d="M78.1701 13.1001H76.8501V35.7001H78.1701V13.1001Z" fill="#E6E7E8"/>
<path d="M113.02 35.5199C111.14 34.8899 109.51 33.5999 108.67 31.6999C108.1 30.4499 107.86 29.0099 107.86 27.3599C107.86 24.7899 107.91 14.1599 107.91 14.1599L111.43 14.1699C111.43 14.1799 111.38 24.8099 111.38 27.3499C111.38 28.6499 111.58 29.5799 111.88 30.2299C112.18 30.8899 112.56 31.3099 113.14 31.6799C114.28 32.4399 116.48 32.8299 119.56 32.8199C121.85 32.8199 123.61 32.5999 124.77 32.1699C125.93 31.7099 126.46 31.2199 126.88 30.3299C127.15 29.7199 127.32 28.8599 127.32 27.6799V14.1299H130.84V27.6999C130.84 29.2099 130.62 30.5599 130.1 31.7599C129.59 32.9499 128.74 33.9499 127.69 34.6399C125.56 36.0199 122.88 36.3499 119.56 36.3699C117.07 36.3599 114.9 36.1799 113.02 35.5199Z" fill="#E6E7E8"/>
<path d="M86.89 35.1099C85.7 34.5999 84.7 33.7499 84.01 32.6999C82.63 30.5699 82.3 27.8899 82.29 24.5699C82.29 22.0799 82.4701 19.9199 83.1301 18.0399C83.7601 16.1599 85.05 14.5299 86.95 13.6899C88.2 13.1199 89.64 12.8799 91.29 12.8799C93.86 12.8799 104.49 12.9299 104.49 12.9299L104.47 16.4499C104.46 16.4499 93.83 16.3999 91.29 16.3999C89.99 16.3999 89.06 16.5999 88.41 16.8999C87.75 17.1999 87.3301 17.5799 86.9601 18.1599C86.2001 19.2999 85.8101 21.4999 85.8201 24.5799C85.8201 26.8699 86.04 28.6299 86.47 29.7899C86.93 30.9499 87.42 31.4799 88.31 31.8999C88.92 32.1699 89.7801 32.3399 90.9601 32.3399H104.53V35.8599H90.9601C89.4301 35.8499 88.08 35.6299 86.89 35.1099Z" fill="#E6E7E8"/>
<path d="M165.7 35.1101C164.51 34.6001 163.51 33.7501 162.82 32.7001C161.44 30.5701 161.11 27.8901 161.1 24.5701C161.1 22.0801 161.28 19.9201 161.94 18.0401C162.58 16.1601 163.86 14.5301 165.76 13.6901C167.01 13.1201 168.45 12.8801 170.1 12.8801C171.58 12.8801 173.02 12.8301 174.65 12.8301C175.77 12.8301 176.98 12.8501 178.33 12.9301C179.89 13.0201 181.2 13.3601 182.27 13.9901C183.35 14.6101 184.13 15.5301 184.6 16.5101C185.53 18.4701 185.48 20.5201 185.49 22.2901C185.49 22.3801 185.49 22.4701 185.49 22.5701C185.49 23.5701 185.34 24.4701 185.01 25.2901C184.68 26.1001 184.13 26.8101 183.47 27.3001C182.12 28.3001 180.56 28.5101 178.99 28.5501C178.17 28.5601 177.34 28.5601 176.53 28.5701C172.44 28.5701 168.68 28.4401 168.67 28.4401L168.79 24.9201C168.8 24.9201 172.51 25.0501 176.53 25.0501C177.33 25.0501 178.14 25.0501 178.94 25.0301C179.87 25.0201 180.58 24.8901 181 24.7001C181.42 24.4901 181.57 24.3501 181.76 23.9501C181.88 23.6701 181.97 23.2301 181.97 22.5801C181.97 22.4901 181.97 22.4001 181.97 22.3001C181.97 20.9901 181.94 19.7601 181.71 18.8601C181.46 17.9401 181.16 17.4601 180.49 17.0401C180.02 16.7701 179.29 16.5201 178.13 16.4601C176.86 16.3901 175.72 16.3701 174.65 16.3701C173.09 16.3701 171.65 16.4201 170.1 16.4201C168.8 16.4201 167.87 16.6201 167.22 16.9201C166.56 17.2201 166.14 17.6001 165.77 18.1801C165.02 19.3201 164.62 21.5201 164.63 24.6001C164.63 26.8901 164.85 28.6501 165.28 29.8101C165.74 30.9701 166.23 31.5001 167.12 31.9201C167.73 32.1901 168.59 32.3601 169.77 32.3601H183.34V35.8801H169.77C168.24 35.8501 166.89 35.6301 165.7 35.1101Z" fill="#E6E7E8"/>
<path d="M138 34.0701C135.82 32.3301 134.79 29.5301 134.82 26.1101C134.82 23.3901 134.87 0.620117 134.87 0.620117L138.39 0.630112C138.39 0.640112 138.38 6.32011 138.37 12.3501C138.36 18.3801 138.34 24.7601 138.34 26.1101C138.34 27.5101 138.54 28.6101 138.86 29.4401C139.19 30.2701 139.62 30.8501 140.21 31.3301C141.36 32.2801 143.41 32.8501 146.42 32.8401C148.72 32.8401 150.7 32.6301 152.14 32.1101C153.59 31.5701 154.47 30.8701 155.08 29.6301C155.48 28.7901 155.74 27.6401 155.74 26.0501C155.74 23.5101 155.69 21.5301 155.45 20.1301C155.21 18.7101 154.83 17.9901 154.33 17.5201C153.98 17.2001 153.49 16.9201 152.68 16.6801C151.6 16.3701 149.99 16.2101 147.79 16.2001C147.72 16.2001 147.67 16.2001 147.62 16.2001C144.39 16.2001 142.4 16.6301 142.04 16.7201C141.99 16.7301 141.98 16.7301 141.98 16.7301H141.73L141.67 13.3301C141.79 13.3001 143.58 12.6801 147.63 12.6801C147.7 12.6801 147.77 12.6801 147.82 12.6801C150.47 12.7001 152.51 12.8801 154.23 13.4801C155.94 14.0501 157.34 15.2201 158.08 16.7701C158.59 17.7901 158.85 18.9201 159.02 20.1601C159.24 21.8301 159.27 23.7401 159.27 26.0501C159.27 28.0201 158.95 29.7101 158.27 31.1401C157.59 32.5701 156.55 33.7001 155.31 34.4801C152.81 36.0401 149.75 36.3501 146.43 36.3601C143.04 36.3501 140.16 35.8001 138 34.0701Z" fill="#E6E7E8"/>
<path d="M178.76 50.76C178.86 50.01 179.02 48.8 179.02 47.3C179.02 43.65 178.25 43.36 177.54 43.36C175.92 43.36 174.86 45.63 174.86 45.9C174.86 46.09 174.98 46.12 175.03 46.12C175.13 46.12 175.2 46.03 175.23 45.95C175.78 44.99 176.17 44.28 176.65 44.28C177.42 44.28 177.42 47.37 177.42 47.73C177.42 50.89 177.03 52.11 176.63 52.92C176.17 53.86 175.44 54.32 174.98 54.32C174.81 54.32 174.71 54.27 174.52 54.06C174.16 53.7 173.92 53.44 173.5 53.44C173.18 53.44 172.71 53.65 172.71 54.16C172.71 54.6 173.1 55.06 174.01 55.06C175.07 55.06 175.96 54.94 179.54 50.54C181.91 47.64 183.04 45.75 183.04 44.43C183.04 43.94 182.89 43.36 182.25 43.36C181.65 43.36 181.4 43.96 181.4 44.37C181.4 44.52 181.42 44.64 181.59 45.1C181.71 45.41 181.76 45.61 181.76 45.89C181.76 47.29 179.81 49.58 178.81 50.77H178.76V50.76ZM169.19 44.12C169.36 44.12 169.65 44.05 169.65 43.73C169.65 43.69 169.65 43.56 169.51 43.56H167.74C167.77 43.49 167.81 43.35 167.83 43.3L168.05 42.69C168.12 42.5 168.36 41.8 168.36 41.67C168.36 41.46 168.21 41.46 167.98 41.46C167.74 41.46 167.06 41.48 166.87 41.55C166.66 41.64 166.24 43.26 166.1 43.56H165.28C164.82 43.56 164.49 43.56 164.49 43.99C164.49 44.13 164.68 44.13 164.85 44.13H165.92C165.36 45.77 164.66 47.83 164.37 49.01C164.28 49.33 164.15 49.88 164.15 50.39C164.15 51.11 164.49 51.38 164.85 51.38C166.25 51.38 168.11 49.23 168.11 48.72C168.11 48.63 168.02 48.53 167.92 48.53C167.84 48.53 167.75 48.62 167.7 48.72C167.19 49.52 166.32 50.22 166.04 50.22C165.94 50.22 165.83 50.13 165.83 49.91C165.83 49.65 166.07 48.85 166.17 48.55C166.96 45.99 166.97 45.92 167.55 44.13H169.19V44.12ZM158.31 41.32C158.31 41.17 158.31 40.45 157.61 40.45C157 40.45 156.52 41.17 156.52 41.75C156.52 42.09 156.67 42.62 157.24 42.62C157.83 42.62 158.31 41.94 158.31 41.32ZM157.33 44.04C157.33 43.78 157.3 43.36 156.78 43.36C155.24 43.36 153.49 45.32 153.49 45.65C153.49 45.75 153.58 45.84 153.66 45.84C153.69 45.84 155.09 44.42 155.45 44.42C155.59 44.42 155.59 44.56 155.59 44.59C155.59 44.78 155.47 45.02 155.32 45.38C154.76 46.68 153.56 49.53 153.56 50.6C153.56 51.11 153.73 51.4 154.29 51.4C155.55 51.4 157.46 49.27 157.46 48.84C157.46 48.74 157.36 48.65 157.27 48.65C157.18 48.65 157.12 48.75 157.08 48.8C156.93 49.04 155.9 50.25 155.49 50.25C155.39 50.25 155.34 50.15 155.34 50.05C155.35 49.16 157.33 44.96 157.33 44.04ZM147.87 40.49C147.92 40.32 147.94 40.3 147.94 40.23C147.94 40.09 147.79 40.04 147.72 40.04C147.67 40.04 147.63 40.06 147.31 40.18C146.41 40.56 145.66 40.56 145.42 40.56C144.94 40.56 144.65 40.56 144.65 40.85C144.65 41.02 144.72 41.02 145.3 41.04C145.37 41.04 145.83 41.07 145.83 41.45C145.83 41.62 145.78 41.81 145.66 42.17L143.7 47.87C143.49 48.43 143.07 49.85 143.07 50.45C143.07 51.05 143.36 51.41 143.89 51.41C145.08 51.41 146.94 49.29 146.94 48.78C146.94 48.68 146.84 48.61 146.75 48.61C146.68 48.61 146.65 48.66 146.6 48.73C146.36 49.11 145.39 50.3 144.96 50.3C144.82 50.3 144.77 50.18 144.77 50.06C144.77 49.68 145.33 48.05 145.5 47.53L147.87 40.49ZM129.49 49.31C129.49 47.74 131.52 43.92 133.77 43.92C133.97 43.92 134.73 43.97 134.73 44.65C134.73 45.96 131.44 50.2 130.16 50.2C129.49 50.2 129.49 49.53 129.49 49.31ZM135.8 43.32C135.31 43.32 135.2 43.39 135.12 43.63C135.1 43.7 135.03 43.85 134.97 43.85C134.92 43.85 134.7 43.73 134.7 43.73C134.53 43.63 134.17 43.51 133.68 43.51C131.38 43.51 127.72 46.36 127.72 49.62C127.72 50.58 128.18 51.39 129.14 51.39C130.71 51.39 132.23 49.43 133.44 47.86C133.59 47.67 133.76 47.43 133.83 47.31L133.86 47.34C133.84 47.41 133.76 47.68 133.72 47.77L133.38 48.79C133.23 49.23 132.92 50.22 132.92 50.65C132.92 51.37 133.41 51.37 133.6 51.37C135.12 51.37 136.74 49.13 136.74 48.71C136.74 48.62 136.67 48.56 136.59 48.56C136.52 48.56 136.45 48.61 136.38 48.71C136.19 49.07 135.27 50.28 134.86 50.28C134.72 50.28 134.69 50.13 134.69 49.99C134.69 49.26 136.72 43.66 136.72 43.52C136.72 43.33 136.48 43.33 136.36 43.33L135.8 43.32ZM122.33 44.12C122.5 44.12 122.79 44.05 122.79 43.73C122.79 43.69 122.79 43.56 122.65 43.56H120.88C120.91 43.49 120.95 43.35 120.96 43.3L121.18 42.69C121.25 42.5 121.49 41.8 121.49 41.67C121.49 41.46 121.34 41.46 121.11 41.46C120.87 41.46 120.19 41.48 120 41.55C119.8 41.64 119.37 43.26 119.23 43.56H118.41C117.95 43.56 117.62 43.56 117.62 43.99C117.62 44.13 117.81 44.13 117.98 44.13H119.05C118.49 45.77 117.79 47.83 117.5 49.01C117.41 49.33 117.28 49.88 117.28 50.39C117.28 51.11 117.62 51.38 117.98 51.38C119.38 51.38 121.24 49.23 121.24 48.72C121.24 48.63 121.15 48.53 121.05 48.53C120.96 48.53 120.88 48.62 120.83 48.72C120.32 49.52 119.45 50.22 119.17 50.22C119.07 50.22 118.97 50.13 118.97 49.91C118.97 49.65 119.21 48.85 119.31 48.55C120.1 45.99 120.11 45.92 120.69 44.13H122.33V44.12ZM111.45 41.32C111.45 41.17 111.45 40.45 110.75 40.45C110.14 40.45 109.66 41.17 109.66 41.75C109.66 42.09 109.81 42.62 110.38 42.62C110.97 42.62 111.45 41.94 111.45 41.32ZM110.48 44.04C110.48 43.78 110.45 43.36 109.93 43.36C108.39 43.36 106.64 45.32 106.64 45.65C106.64 45.75 106.73 45.84 106.81 45.84C106.84 45.84 108.24 44.42 108.6 44.42C108.74 44.42 108.74 44.56 108.74 44.59C108.74 44.78 108.62 45.02 108.47 45.38C107.91 46.68 106.71 49.53 106.71 50.6C106.71 51.11 106.88 51.4 107.44 51.4C108.7 51.4 110.61 49.27 110.61 48.84C110.61 48.74 110.51 48.65 110.42 48.65C110.34 48.65 110.27 48.75 110.23 48.8C110.08 49.04 109.05 50.25 108.64 50.25C108.54 50.25 108.49 50.15 108.49 50.05C108.5 49.16 110.48 44.96 110.48 44.04ZM95.5 43.83C95.81 43.8 96.13 43.75 96.54 43.75C97.38 43.75 98.38 43.9 98.38 45.39C98.38 46.82 97.08 50.97 94.57 50.97C93.92 50.97 93.44 50.63 93.44 50.13C93.44 50.03 93.49 49.67 93.66 49.19L95.5 43.83ZM93.18 50.86C93.44 51.06 93.85 51.37 94.85 51.37C98.43 51.37 100.02 47.55 100.02 45.59C100.02 43.27 97.82 43.27 97.2 43.27C96.36 43.27 96.04 43.34 95.61 43.41C95.61 43.31 96.09 42.13 96.09 41.91C96.09 41.79 96.06 41.76 95.83 41.76C94.69 41.76 94.65 41.79 94.59 41.86C94.49 41.95 94.35 42.41 94.09 43.26L93.99 43.6C92.49 43.86 92.32 43.87 92.32 44.16C92.32 44.25 92.37 44.33 92.47 44.33C92.5 44.33 92.56 44.33 92.61 44.31C92.76 44.26 93.41 44.12 93.82 44.09L90.89 53.05C90.62 53.89 90.41 54.19 89.59 54.26C89.2 54.29 88.86 54.31 88.86 54.62C88.86 54.69 88.88 54.81 89.03 54.81C89.11 54.81 89.76 54.67 91.16 54.67C92.34 54.67 93.34 54.81 93.41 54.81C93.56 54.81 93.79 54.81 93.79 54.57C93.79 54.35 93.58 54.33 92.97 54.26C92.66 54.22 92.35 54.14 92.35 53.8C92.35 53.68 92.38 53.51 92.45 53.29L93.18 50.86ZM81.58 51.38C83.34 51.38 84.79 50.25 84.79 49.01C84.79 48.33 84.41 47.87 83.82 47.25C82.44 45.85 81.93 45.2 81.93 44.66C81.93 44.03 82.6 43.96 82.72 43.96C83.51 43.96 84.09 44.54 84.34 44.81C84.6 45.07 84.89 45.37 85.23 45.37C85.66 45.37 85.78 44.62 85.78 44.33C85.78 43.72 84.88 43.36 83.72 43.36C81.65 43.36 80.56 44.85 80.56 45.8C80.56 46.38 80.99 46.96 81.94 47.95C82.84 48.85 83.15 49.23 83.15 49.76C83.15 50.22 82.81 50.9 82.18 50.9C81.87 50.9 81.48 50.76 80.85 49.93C80.32 49.23 80.1 48.94 79.74 48.94C79.33 48.94 79.16 49.61 79.16 49.88C79.14 51.34 81.25 51.38 81.58 51.38ZM71.65 45.61C71.65 46.86 71.04 48.82 69.89 50.17C69.68 50.39 69.16 51.01 68.13 51.01C66.93 51.01 66.7 49.88 66.7 49.17C66.7 47.21 67.95 43.74 70.16 43.74C71.36 43.73 71.65 44.79 71.65 45.61ZM73.26 46.62C73.26 44.56 71.57 43.36 70.15 43.36C67.59 43.36 65.1 45.54 65.1 48.07C65.1 49.9 66.4 51.38 68.1 51.38C70.18 51.38 73.26 49.55 73.26 46.62ZM53.52 43.58C53.78 42.78 54.59 40.27 54.59 40.2C54.59 40.13 54.57 40.05 54.42 40.05C54.33 40.05 54.16 40.14 53.99 40.22C53.73 40.36 52.86 40.58 52.23 40.56L51.84 40.54C51.69 40.54 51.33 40.54 51.33 40.85C51.33 40.95 51.38 41.04 51.62 41.04C52.15 41.04 52.37 41.04 52.37 41.43C52.37 42.37 49.5 50.49 49.5 50.88C49.5 51.17 49.69 51.17 50.23 51.17C50.96 51.17 51 51.14 51.2 50.57C52.17 47.89 54.92 44.32 56.12 44.32C56.38 44.32 56.82 44.35 56.82 45.21C56.82 46.61 55.51 50.86 54.57 50.86C53.97 50.86 54.13 49.96 53.32 49.96C53 49.96 52.54 50.28 52.54 50.68C52.54 51.11 52.97 51.38 53.51 51.38C56.21 51.38 58.58 48.51 58.61 45.58C58.63 43.72 57.57 43.38 57.01 43.38C55.51 43.38 53.96 45.09 52.35 47.39L52.32 47.34L53.52 43.58Z" fill="#E6E7E8"/>
</svg>
